<svg xmlns="http://www.w3.org/2000/svg" viewBox="0 0 101 106" width="101" height="106"><path d="M49 45v-1a2 2 0 1 1 3 0v1a2 2 0 1 1-3 0Zm52-18H91l3-4-2-2-7 8 7 8 2-3-3-4h10v-3ZM9 21l-2 2 3 4H0v3h10l-3 4 2 3 8-8Zm13 4h-3v6h3v-6Zm1-11-4-1v7h3l1-6Zm-1 22h-3l-1 6h3l1-6Zm58 6h3l-1-6h-3l1 6Zm-1-11h3v-6h-3v6Zm0-11h3v-7l-4 1 1 6Zm5 34a55 55 0 0 1 6 24 61 61 0 0 1-7 28l-3-2a59 59 0 0 0 6-26 49 49 0 0 0-1-14c-5 3-22 13-28 26a84 84 0 0 0 2 15l-3 1a85 85 0 0 1-2-15h-7a85 85 0 0 1-2 15l-3-1a84 84 0 0 0 2-15c-6-13-23-23-28-26a49 49 0 0 0-1 14 59 59 0 0 0 6 26l-3 2a61 61 0 0 1-7-28 55 55 0 0 1 6-24 32 32 0 0 0 1-6v-1h2c3-6 6-11 6-18 0-11-2-17-3-21v1h-4l1-7 2-2s7 6 7 29c0 8-3 14-7 21l-3 6a133 133 0 0 0 63 0l-3-6c-4-7-7-13-7-21 0-23 7-29 7-29l2 2 1 7h-4V8c-1 4-2 10-2 21 0 7 2 12 5 18h2v1a33 33 0 0 0 1 6Zm0 7-1-2a134 134 0 0 1-65 0l-1 2c4 2 22 12 29 27h9c7-15 25-25 29-27Z"/></svg>
