<svg xmlns="http://www.w3.org/2000/svg" viewBox="0 0 24.1 22"><path fill="#d2bea6" d="M12.1 7C9.8 7 8 8.7 8 10.9s1.7 4 3.9 4.1 4-1.7 4.1-3.9V11a4 4 0 0 0-3.9-4zm0 6a2 2 0 0 1-2-2c0-1.1.9-2 2-2a2 2 0 0 1 2 2c-.1 1.1-1 2-2 2zm11.6-2.6c-.7-1-1.5-1.9-2.3-2.7l2.1-2.1-1.4-1.4-2.2 2.2-2.2-1.6L19 2l-1.8-.9-1.3 2.8c-.9-.4-1.9-.7-2.9-.8V0h-2v3.1c-1 .1-1.9.4-2.9.8L6.9 1.1 5.1 2l1.3 2.8-2.2 1.6L2 4.2.6 5.7l2.1 2.1c-.8.8-1.6 1.7-2.3 2.7L0 11l.4.6c.2.3 5.2 7.4 11.7 7.4s11.4-7.1 11.6-7.4l.4-.6-.4-.6zM12.1 17c-4.4 0-8.3-4.4-9.6-6 1.3-1.6 5.1-6 9.6-6 4.4 0 8.3 4.4 9.6 6-1.3 1.6-5.2 6-9.6 6z"/></svg>