<svg xmlns="http://www.w3.org/2000/svg" viewBox="0 0 300 200"><path fill="#fff" d="M0 0h300v200H0z"/><path d="M130 0v80H0v40h130v80h40v-80h130V80H170V0h-40z" class="st1"/><path d="M254.5 39.5c0-2.3.2-4.6.4-6.8-4.7.9-9.4 1.5-14.3 1.7.2-4.9.8-9.6 1.7-14.3a50.7 50.7 0 0 1-13.6 0c.9 4.7 1.5 9.4 1.7 14.3-4.9-.2-9.6-.8-14.3-1.7a50.7 50.7 0 0 1 0 13.6c4.7-.9 9.4-1.5 14.3-1.7-.2 4.9-.8 9.6-1.7 14.3a50.7 50.7 0 0 1 13.6 0c-.9-4.7-1.5-9.4-1.7-14.3 4.9.2 9.6.8 14.3 1.7-.2-2.3-.4-4.5-.4-6.8zm0 121.1c0-2.3.2-4.6.4-6.8-4.7.9-9.4 1.5-14.3 1.7.2-4.9.8-9.6 1.7-14.3a50.7 50.7 0 0 1-13.6 0c.9 4.7 1.5 9.4 1.7 14.3-4.9-.2-9.6-.8-14.3-1.7a50.7 50.7 0 0 1 0 13.6c4.7-.9 9.4-1.5 14.3-1.7-.2 4.9-.8 9.6-1.7 14.3a50.7 50.7 0 0 1 13.6 0c-.9-4.7-1.5-9.4-1.7-14.3 4.9.2 9.6.8 14.3 1.7-.2-2.3-.4-4.5-.4-6.8zM83.4 39.5c0-2.3.2-4.6.4-6.8-4.7.9-9.4 1.5-14.3 1.7.2-4.9.8-9.6 1.7-14.3a50.7 50.7 0 0 1-13.6 0c.9 4.7 1.5 9.4 1.7 14.3-4.9-.2-9.6-.8-14.3-1.7a50.7 50.7 0 0 1 0 13.6c4.7-.9 9.4-1.5 14.3-1.7-.2 4.9-.8 9.6-1.7 14.3a50.7 50.7 0 0 1 13.6 0c-.9-4.7-1.5-9.4-1.7-14.3 4.9.2 9.6.8 14.3 1.7-.2-2.3-.4-4.5-.4-6.8zm0 121.1c0-2.3.2-4.6.4-6.8-4.7.9-9.4 1.5-14.3 1.7.2-4.9.8-9.6 1.7-14.3a50.7 50.7 0 0 1-13.6 0c.9 4.7 1.5 9.4 1.7 14.3-4.9-.2-9.6-.8-14.3-1.7a50.7 50.7 0 0 1 0 13.6c4.7-.9 9.4-1.5 14.3-1.7-.2 4.9-.8 9.6-1.7 14.3a50.7 50.7 0 0 1 13.6 0c-.9-4.7-1.5-9.4-1.7-14.3 4.9.2 9.6.8 14.3 1.7-.2-2.3-.4-4.5-.4-6.8z" class="st1"/></svg>