<svg xmlns="http://www.w3.org/2000/svg" viewBox="0 0 20 20"><linearGradient id="a1" x1="12.9" x2="7.9" y1="18.6" y2="7" gradientTransform="matrix(1 0 0 -1 0 21.8)" gradientUnits="userSpaceOnUse"><stop offset="0" stop-color="#38aee1"/><stop offset="1" stop-color="#2296c8"/></linearGradient><circle cx="10" cy="10" r="10" fill="url(#a1)"/><path fill="#fff" d="m3.7 10.5 3.7-1.7 6.3-2.6c.4-.1 1.2-.3 1.2.3 0 .9-.2 1.7-.3 2.6l-.9 5.7c-.1.6-.9 1-1.4.6l-3.6-2.5c-.4-.4 0-1 .3-1.3 1-1 2.1-1.8 3-2.9.3-.6-.5-.1-.7.1l-4.1 2.8c-.7.4-1.6.1-2.3-.2-.8-.2-1.7-.5-1.2-.9z"/></svg>
