<svg xmlns="http://www.w3.org/2000/svg" width="28.38" height="28.31" viewBox="0 0 28.38 28.31"><path d="M23.8 11.36a5.62 5.62 0 0 0-4.24.58 3.34 3.34 0 0 1-.73.3 3.34 3.34 0 0 1-.74-.3 5.93 5.93 0 0 0-3.45-.75V7.01L14.62 7 11.48 4.2V0h-8.3v4.2L.02 6.99 0 7.01v5.79a67.5 67.5 0 0 0 1.6 14.6l.22.92h11l.2-.92a1.43 1.43 0 0 0 .04-.19 4.74 4.74 0 0 0 2.78 1.1 5.63 5.63 0 0 0 2.58-.5c.48-.22.32-.22.8 0a5.58 5.58 0 0 0 2.57.5c2.89 0 6.56-4.22 6.56-8.95.01-4.52-1.49-7.14-4.56-8Zm-18.26-9h3.57v1.2H5.54v-1.2ZM4.8 5.91h5.04l1.22 1.07H3.58Zm6.3 19.16-.18.88h-7.2A63.96 63.96 0 0 1 2.36 12.8V9.35h9.92v2.7c-2.01 1.23-3 3.65-3 7.31a10.31 10.31 0 0 0 1.82 5.71Zm10.7.88a3.24 3.24 0 0 1-1.6-.3 3.01 3.01 0 0 0-2.74 0 3.24 3.24 0 0 1-1.61.3c-1.25 0-4.2-2.79-4.2-6.6 0-4.37 1.52-5.36 2.86-5.74a3.35 3.35 0 0 1 2.55.44 4.18 4.18 0 0 0 1.76.53 4.18 4.18 0 0 0 1.76-.53 3.35 3.35 0 0 1 2.56-.44C24.47 14 26 15 26 19.36c0 3.82-2.94 6.6-4.2 6.6ZM19.39 10.2a6.32 6.32 0 0 1-.66-.03l-.94-.1-.1-.95c-.04-.3-.28-3.04 1.4-4.73s4.44-1.44 4.75-1.4l.94.1.1.93c.03.31.28 3.05-1.41 4.74a5.83 5.83 0 0 1-4.08 1.44Zm3.11-4.85a2.41 2.41 0 0 0-2.44 2.44 2.41 2.41 0 0 0 2.44-2.44Z"/></svg>
