<svg xmlns="http://www.w3.org/2000/svg" width="28" height="28.03" viewBox="0 0 28 28.03"><path d="M22.12 28.02h-3.9l-3.94-3.97H3.34a3.34 3.34 0 0 1-3.35-3.32V3.33A3.34 3.34 0 0 1 3.34 0h21.33A3.34 3.34 0 0 1 28 3.32v17.4a3.34 3.34 0 0 1-3.34 3.33h-2.55v3.97Zm-2.93-2.34h.6v-3.97h4.88a1 1 0 0 0 1.01-.98V3.33a1 1 0 0 0-1.01-1H3.34a1 1 0 0 0-1.01 1v17.4a1 1 0 0 0 1.01.98h11.91Zm-6.66-13.36a8.5 8.5 0 0 1 1.26-1.4 7.57 7.57 0 0 0 .85-.9 1.27 1.27 0 0 0 .27-.79 1.07 1.07 0 0 0-.48-.92 2.1 2.1 0 0 0-1.25-.34 2.78 2.78 0 0 0-1.43.37A2.87 2.87 0 0 0 10.7 9.4L7.77 7.8a5.56 5.56 0 0 1 2.3-2.15 7.65 7.65 0 0 1 3.56-.77 6.59 6.59 0 0 1 3.78.98 4.03 4.03 0 0 1 1.43 2.73 3.49 3.49 0 0 1-.28 1.43 3.88 3.88 0 0 1-.66 1.04 11.89 11.89 0 0 1-1 .96 7.18 7.18 0 0 0-.99.98 1.48 1.48 0 0 0-.31.93h-3.51a2.84 2.84 0 0 1 .44-1.62Zm-.18 6.23a2.01 2.01 0 0 1-.6-1.47 1.96 1.96 0 0 1 .59-1.46 2.06 2.06 0 0 1 1.5-.57 2.1 2.1 0 0 1 1.53.57 1.94 1.94 0 0 1 .59 1.46 2.01 2.01 0 0 1-.6 1.47 2.04 2.04 0 0 1-1.51.6 2.02 2.02 0 0 1-1.5-.6Z"/></svg>
