<svg xmlns="http://www.w3.org/2000/svg" width="24" height="24" viewBox="0 0 24 24"><path d="M11.999 0C5.382 0 0 5.383 0 11.999c0 6.617 5.382 12 11.999 12 6.618 0 12-5.383 12-12 0-6.616-5.382-11.999-12-11.999ZM6.136 20.82c1.508-2.359 3.621-3.306 5.863-3.306 2.241 0 4.356.947 5.864 3.306-1.65.462-3.672 1.179-5.864 1.179-2.191 0-4.213-.716-5.863-1.179Zm2.349-8.821c0-1.379 2.135-3.514 3.514-3.514 1.938 0 3.514 2.135 3.514 3.514 0 1.938-1.576 3.515-3.514 3.515-1.379 0-3.514-1.577-3.514-3.515Zm10.869 6.752c-1.052-1.141-2.224-2.022-3.77-2.571 1.179-1.012 1.929-2.509 1.929-4.181 0-3.04-2.123-5.514-5.514-5.514-3.041 0-5.514 2.474-5.514 5.514 0 1.672.75 3.169 1.928 4.181-1.428.549-2.716 1.43-3.768 2.571-.845-1.781-2.646-4.148-2.646-6.752 0-5.514 4.487-10 10-10 5.514 0 10 4.486 10 10 0 2.604-1.008 4.971-2.645 6.752Z"/></svg>
