<svg xmlns="http://www.w3.org/2000/svg" width="80.44" height="65.38" viewBox="0 0 80.44 65.38">
  <defs>
    <style>
      .cls-1 {
        fill: #494450;
        fill-rule: evenodd;
      }
    </style>
  </defs>
  <path id="props_icon_dumbbells" class="cls-1" d="M1420.91,1333.07a12.008,12.008,0,0,0,6.95,2.21,12.373,12.373,0,0,0,2.56-.27,11.775,11.775,0,0,0,8.68-7.69,2.547,2.547,0,0,1,1.87-1.62l31.18-6.85a2.559,2.559,0,0,1,2.38.69,11.97,11.97,0,0,0,18.95-2.4,11.75,11.75,0,0,0,.87-9.61,11.933,11.933,0,0,0-22.49-.01,2.575,2.575,0,0,1-1.87,1.66l-31.19,6.84a2.6,2.6,0,0,1-2.41-.71,11.905,11.905,0,0,0-12.17-3.03A11.727,11.727,0,0,0,1420.91,1333.07Zm4.18-18.08a9.145,9.145,0,0,1,2.77-.43,9.019,9.019,0,0,1,6.47,2.72,5.437,5.437,0,0,0,5.09,1.52l31.19-6.85a5.385,5.385,0,0,0,3.96-3.5,9.055,9.055,0,0,1,17.06-.01,8.788,8.788,0,0,1-.66,7.31,9.068,9.068,0,0,1-14.37,1.82,5.444,5.444,0,0,0-5.07-1.49l-31.18,6.84a5.418,5.418,0,0,0-3.96,3.48,8.956,8.956,0,0,1-6.59,5.83,9.1,9.1,0,0,1-7.21-1.47,8.823,8.823,0,0,1-3.72-6.34A8.914,8.914,0,0,1,1425.09,1314.99Zm54.14-4.95-1.36-.46a5.55,5.55,0,0,1,10.46-.02l-1.36.46A4.108,4.108,0,0,0,1479.23,1310.04Zm-56.89,14.01a5.284,5.284,0,0,1,.71-3.27l1.24,0.71a3.956,3.956,0,0,0-.52,2.41,4.1,4.1,0,0,0,4.07,3.67v1.42A5.526,5.526,0,0,1,1422.34,1324.05Zm73.25,27.8a11.92,11.92,0,0,0-21.95-4.83,2.554,2.554,0,0,1-2.19,1.21H1439.5a2.563,2.563,0,0,1-2.19-1.22,11.933,11.933,0,0,0-21.96,4.83,11.808,11.808,0,0,0,2.96,9.2,12.035,12.035,0,0,0,8.86,3.93,11.842,11.842,0,0,0,10.16-5.65,2.548,2.548,0,0,1,2.17-1.18h31.95a2.557,2.557,0,0,1,2.17,1.19,11.855,11.855,0,0,0,10.16,5.64h0a11.988,11.988,0,0,0,8.86-3.92A11.775,11.775,0,0,0,1495.59,1351.85Zm-5.09,7.3a9.081,9.081,0,0,1-6.72,2.98h0a8.99,8.99,0,0,1-7.71-4.29,5.447,5.447,0,0,0-4.62-2.54H1439.5a5.447,5.447,0,0,0-4.62,2.54,9.077,9.077,0,0,1-14.43,1.3,8.8,8.8,0,0,1-2.24-6.99,9.046,9.046,0,0,1,16.65-3.65,5.43,5.43,0,0,0,4.64,2.57h31.95a5.414,5.414,0,0,0,4.63-2.56,9.053,9.053,0,0,1,16.66,3.65A8.838,8.838,0,0,1,1490.5,1359.15Zm-58.61-8.84-1.22.75a4.138,4.138,0,0,0-3.89-1.93,4.331,4.331,0,0,0-.5.08,4.106,4.106,0,0,0-3.18,3.48l-1.42-.16a5.542,5.542,0,0,1,4.29-4.71,5.311,5.311,0,0,1,.68-0.1A5.562,5.562,0,0,1,1431.89,1350.31Zm57.38,2.23a5.505,5.505,0,0,1-4.29,6.01l-0.31-1.39a4.045,4.045,0,0,0,2.14-6.7l1.06-.95A5.311,5.311,0,0,1,1489.27,1352.54Z" transform="translate(-1415.25 -1299.59)"/>
</svg>
