<?xml version="1.0" encoding="utf-8"?>
<!-- Generator: Adobe Illustrator 25.2.1, SVG Export Plug-In . SVG Version: 6.00 Build 0)  -->
<svg version="1.1" id="Layer_1" xmlns="http://www.w3.org/2000/svg" xmlns:xlink="http://www.w3.org/1999/xlink" x="0px" y="0px"
	 viewBox="0 0 24.1 22" style="enable-background:new 0 0 24.1 22;" xml:space="preserve">
<style type="text/css">
	.st0{fill-rule:evenodd;clip-rule:evenodd;fill:#D2BEA6;}
</style>
<path id="icon_eye_close" class="st0" d="M23.7,11.6l-1.6-1.2c0,0.1-4.6,6.6-10,6.6s-10-6.5-10-6.6l-1.6,1.2c0.7,1,1.5,1.9,2.3,2.7
	l-2.1,2.1L2,17.8l2.2-2.2c0.7,0.6,1.5,1.1,2.2,1.6L5.1,20l1.8,0.8l1.3-2.7c0.9,0.4,1.9,0.7,2.9,0.8V22h2v-3.1c1-0.1,1.9-0.4,2.9-0.8
	l1.3,2.7L19,20l-1.3-2.8c0.8-0.5,1.5-1,2.2-1.6l2.2,2.2l1.4-1.4l-2.1-2.1C22.2,13.4,23,12.5,23.7,11.6z"/>
</svg>
