<svg xmlns="http://www.w3.org/2000/svg" viewBox="0 0 28.38 30.59">
  <path fill="#615c69" fill-rule="evenodd" d="M11.23.92C9.4.18 7.26 1.33 6.1.89 5.23.56 4.74-.38 4.59.14c-.21.77-.24 2 1.27 3.8 2.18 2.6 4.11.8 7.29 2.52a.69.69 0 0 0 1-.67C14 3.98 13.49 1.8 11.23.92Zm2.96 29.67a11.4 11.4 0 0 1-4.54-.94 18 18 0 0 1-6.92-5.13A12.12 12.12 0 0 1 1.04 12a8.26 8.26 0 0 1 7.72-4.97 8.01 8.01 0 0 1 5.43 2.33 8.01 8.01 0 0 1 5.43-2.33 8.26 8.26 0 0 1 7.7 4.97 12.12 12.12 0 0 1-1.68 12.52 18 18 0 0 1-6.92 5.13 11.4 11.4 0 0 1-4.53.94Zm-3.6-3.13a9.12 9.12 0 0 0 7.2 0 15.68 15.68 0 0 0 6.03-4.45 9.8 9.8 0 0 0 1.37-9.99 5.93 5.93 0 0 0-5.58-3.6c-1.52 0-2.9.72-4.6 2.42a1.17 1.17 0 0 1-1.66 0c-1.7-1.7-3.07-2.42-4.6-2.42a5.93 5.93 0 0 0-5.57 3.6 9.8 9.8 0 0 0 1.37 9.99 15.68 15.68 0 0 0 6.03 4.45Zm3.6-1.64a6.7 6.7 0 0 1-2.68-.55 13.33 13.33 0 0 1-5.13-3.78 1.2 1.2 0 0 1 .16-1.68 1.17 1.17 0 0 1 1.66.17 11 11 0 0 0 4.24 3.1 4.39 4.39 0 0 0 3.5 0 11 11 0 0 0 4.23-3.1 1.17 1.17 0 0 1 1.66-.17A1.2 1.2 0 0 1 22 21.5a13.34 13.34 0 0 1-5.14 3.78 6.7 6.7 0 0 1-2.67.55Z"/>
</svg>
