<svg xmlns="http://www.w3.org/2000/svg" width="24" height="24" viewBox="0 0 24 24"><path fill="#615C69" fill-rule="evenodd" d="M18.449 23.999c-1.22 0-1.8-.26-2.18-.43-.41-.19-.27-.19-.68 0-.38.17-.97.43-2.18.43-.76 0-1.58-.35-1.819-.409-.1-.481-.2-.431-.4-.371l-.341.78h-9.31l-.18-.78C.459 19.159 0 14.999 0 10.849v-4.9l.19-.02 2.499-2.37V0h7.02v3.569l2.66 2.36.02.02v3.54c1.28-.16 2.25.31 2.92.63.22.1.51.25.62.25.461 0 .4-.15.62-.25.79-.38 1.97-.94 3.58-.49 2.6.73 3.87 2.95 3.87 6.78 0 4.01-3.11 7.59-5.55 7.59Zm-10.74-22h-3.02V3.19h3.02V1.999Zm.62 3.191H4.59l-1.3.739h6.069l-1.03-.739Zm2.06 2.739h-8.39v2.92c0 3.74.38 7.49 1.15 11.15h6.09l.15-.75c-.91-1.34-1.53-3.05-1.53-4.84 0-3.1.83-5.15 2.53-6.2v-2.28Zm9.19 3.62c-.87-.24-.789.05-2.16.37-.47.22-.95.45-1.49.45s-1.02-.23-1.49-.45c-.66-.32-1.29-.61-2.16-.37-1.13.32-2.42 1.16-2.42 4.86 0 3.23 2.49 5.59 3.55 5.59.79 0 1.07-.13 1.36-.26.721-.13.63-.28 1.16-.28.53 0 .88.15 1.961.28-.511.13-.231.26.559.26 1.06 0 3.55-2.36 3.55-5.59 0-3.7-1.29-4.54-2.42-4.86Zm-3.178-2.903c-.291 0-.495-.019-.563-.026l-.428-.088-.457-.798c-.028-.26-.236-2.579 1.194-4.009 1.43-1.43 3.748-1.223 4.009-1.194l.799.087.465.798c.28.26-.142 2.579-1.572 4.01-1.06 1.061-2.611 1.22-3.447 1.22Zm1.161-3.507c-.37.369-.282 1.801-.599 1.471.516-.065 1.687-.229 1.471-.49.369-.478.534-.58.886-1.579-.803.064-1.389.229-1.758.598Z"/></svg>
