<svg xmlns="http://www.w3.org/2000/svg" width="22" height="30"><path d="M1552.02 2121.86v-1.84a7.02 7.02 0 0 0-14.04 0v1.82a6.17 6.17 0 0 0-2.23 1.41 5.954 5.954 0 0 0-1.75 4.23v4.52a11 11 0 0 0 22 0v-4.51a5.98 5.98 0 0 0-3.98-5.63ZM1545 2117a3.024 3.024 0 0 1 3.02 3.02v1.49h-6.04v-1.49a3.017 3.017 0 0 1 3.02-3.02Zm7 15a7 7 0 0 1-14 0v-4.52a1.98 1.98 0 0 1 1.98-1.98l10.04.01a1.985 1.985 0 0 1 1.98 1.98v4.51Zm-7-4.26a2.5 2.5 0 0 0-1.5 4.5v1.95a1.5 1.5 0 0 0 3 0v-1.95a2.5 2.5 0 0 0-1.5-4.5Z" transform="translate(-1534 -2113)" style="fill:#f1e2cf;fill-rule:evenodd;opacity:.2"/></svg>