<svg xmlns="http://www.w3.org/2000/svg"><path fill="red" d="M0 0h1000v600H0z"/><path fill="#ff0" d="M455 259c-11-7-23-12-35-17a97 97 0 0 0-13 83 183 183 0 0 1 48-66zm-30-24c13 4 26 10 38 17l8-6c-12-7-26-13-40-18l-6 7zm12-12c15 4 30 9 43 17l10-6c-15-8-30-13-46-17l-7 6zm14-10c17 3 33 8 49 16 15-8 31-13 48-16a95 95 0 0 0-97 0zm104 4c-16 4-31 10-46 17l10 6c14-8 28-13 43-17l-7-6zm13 12c-14 4-27 10-40 17l8 6c12-7 25-13 38-17-2-2-3-5-6-6zm12 13c-13 5-24 10-36 17a196 196 0 0 1 48 66c3-9 4-19 4-29 0-20-6-39-16-54zm-9 66c-10-16-22-31-36-43l-9 7c23 21 41 48 53 79l7-13-15-30zm-53-44 9-6-9-7-9 6 9 7zm-18-13 9-6-9-6-10 6 10 6zm-10 6-9-6-9 7 10 6 8-7zm10 7-9 7 9 8 8-8-8-7zm0 32a214 214 0 0 0-49 84 99 99 0 0 0 97 0 205 205 0 0 0-48-84zm-56 64c11-28 27-53 47-73l-9-8c-23 23-42 51-53 83l10 10 5-12zm64-73a219 219 0 0 1 52 85l10-10c-11-32-30-60-53-83l-9 8zm-88 64c12-31 30-58 53-79l-9-7a209 209 0 0 0-51 73l7 13zm80-159a108 108 0 0 1 0 216 108 108 0 0 1 0-216zm48-24c-3 4-7 8-10 15v-6c1-8 3-13 7-19l3-7c3-8 2-18-3-26 0 9-2 17-5 21l-2 2c-3 3-7 7-11 14-3 4-5 9-8 17l-1-6c0-8 1-13 4-20l2-8c1-8-1-18-7-25 2 9 1 17-2 22l-1 2c-3 4-6 8-9 16-2 4-4 9-5 17l-2-6c-2-7-1-12 1-20l1-8c0-8-4-17-12-23 4 8 4 16 2 22l-1 2c-2 4-4 8-6 17l-2 18c-2-2-3-3-3-6-3-7-3-12-3-20v-8c-1-8-6-16-15-21 5 8 6 16 6 21l-1 3c-1 4-3 8-4 17l1 18c-2-1-3-2-4-5-4-7-5-12-5-19l-2-8c-2-8-8-16-18-19 6 7 9 15 9 20l-1 3-1 18 4 18-4-5c-5-6-7-11-9-18l-2-8c-4-7-12-14-21-15 7 6 10 13 11 18v3l2 18c2 4 3 10 7 17l-5-4c-6-5-9-10-12-17l-3-7c-5-6-13-12-23-12 8 5 12 11 14 16v3l5 17c2 5 4 10 9 16l-5-2c-7-5-10-9-14-15l-5-7c-6-5-15-9-25-8 9 3 14 9 17 14l1 2 7 17 12 14-6-2c-8-3-11-7-16-12l-6-6c-6-5-16-7-25-4 8 2 15 6 18 11l1 2 10 15c3 4 7 8 14 12h-7c-7-3-11-5-17-10l-7-5c-7-4-17-5-26 0 9 0 16 4 20 8l2 2c3 3 5 7 12 13 4 3 8 7 15 10h-6c-8-1-12-3-19-7l-7-3c-8-3-18-2-26 3 9 0 17 2 21 5l2 2c4 3 7 7 14 11 4 3 9 6 17 8l-6 1c-8 0-13-1-20-4l-8-2c-8-1-18 1-25 7 9-2 17-1 22 2l2 1a70 70 0 0 0 33 14l-5 2c-8 2-13 1-21-1l-8-1c-8 0-17 4-23 12 8-4 16-4 22-2l2 1a71 71 0 0 0 35 8c-2 2-3 3-6 3-7 3-12 3-20 3h-8c-7 1-16 6-21 15 8-5 16-6 21-6l3 1a66 66 0 0 0 35 3c-1 2-2 3-5 4-6 4-12 5-19 5l-8 2c-8 2-15 8-19 18 7-6 15-8 20-9l3 1 18 1 18-4-5 4c-6 5-11 7-18 9l-7 2c-8 4-14 12-16 21 6-7 13-10 18-11h3l18-2c4-2 10-3 17-7l-4 5c-5 6-10 9-17 12l-7 3c-6 5-12 13-12 23 5-8 11-12 17-14h2l17-5c5-2 10-4 16-9l-2 5c-5 7-9 10-15 14l-7 5c-5 6-9 15-8 25 3-9 9-14 14-17l2-1 17-7 14-12-2 6c-3 8-7 11-12 16l-6 6c-4 6-7 16-4 25a30 30 0 0 1 13-19l15-10c4-3 8-7 12-14v7c-3 7-5 11-10 17l-5 7c-3 7-5 17 0 26a32 32 0 0 1 10-22c4-3 7-5 13-12 3-4 7-8 10-15v6c-1 8-3 12-7 19l-3 7c-3 8-2 18 4 26-1-9 1-17 4-21l2-2c3-4 7-7 11-14 3-4 6-9 8-17l1 6c0 8-1 13-4 20l-2 8c-1 8 1 18 7 25a31 31 0 0 1 3-24c3-4 6-8 9-16 2-4 4-9 5-17l2 5c2 8 1 13-1 21l-1 8c0 8 4 17 12 23-4-8-4-16-2-22l1-2c2-4 4-8 6-17l2-18c2 2 3 3 3 6 3 7 3 12 3 20v8c1 8 6 16 15 21a32 32 0 0 1-5-24c1-4 3-8 4-17l-1-18c2 1 3 2 4 5 4 6 5 12 6 19l1 8c2 8 8 15 18 19-6-7-8-15-9-20l1-3 1-18-4-18 4 5c5 6 7 11 9 18l2 7c4 8 12 14 21 16-7-6-10-13-11-18v-3l-2-18c-1-4-3-10-7-17l5 4c6 5 9 10 12 17l3 7c5 6 14 12 23 12a33 33 0 0 1-14-19l-5-17c-2-5-4-10-9-16l6 2c6 5 9 9 13 15l5 7c6 5 15 9 25 8-9-3-14-9-17-14l-1-2-7-17-12-14 6 2c8 3 11 7 17 12l5 6c6 5 16 7 25 4-8-2-15-6-18-11l-1-2c-3-4-4-8-10-15-3-4-7-8-14-12h7l18 10c2 2 3 4 6 5 7 3 17 5 26 0-9 0-16-4-20-8l-2-2c-3-4-5-7-12-13-4-3-8-7-15-10h6c8 1 13 3 19 7l7 3c8 3 18 2 26-4-9 1-17-1-21-4l-2-2c-3-3-7-7-14-11-4-3-9-6-17-8l6-1c8 0 13 1 20 4l8 2c8 1 18-1 25-7-9 2-17 1-22-2l-2-1c-4-3-8-6-16-9-4-2-9-4-17-5l6-2c7-2 12-1 20 1l8 1c8 0 17-4 23-12a33 33 0 0 1-24 1c-4-2-8-4-17-6l-18-2c2-2 3-3 6-3 7-3 12-3 20-3h8c8-1 16-6 21-15-8 5-15 6-21 6l-3-1c-4-1-8-3-17-4l-18 1c1-2 2-3 5-4 7-4 12-5 19-6l8-1c8-2 16-8 19-18-7 6-15 8-20 9l-3-1-18-1-18 4 5-4c6-5 11-7 18-9l8-2c7-4 14-12 15-21-6 7-13 10-18 11h-3l-18 2c-4 1-10 3-17 7l4-5c5-6 10-9 17-12l7-3c6-5 12-14 12-23-5 7-11 12-16 14h-3l-17 5c-5 2-10 4-16 9l2-6c5-6 9-9 15-13a28 28 0 0 0 15-30c-3 9-9 14-14 17l-2 1-17 7-14 12 2-6c3-8 7-11 12-17l6-5c5-6 7-16 4-25-2 8-6 15-11 18l-2 1c-4 3-8 4-15 10-4 3-8 7-12 14v-7l10-18c2-2 4-3 5-6 4-7 5-17 0-26a32 32 0 0 1-10 22c-3 3-7 5-13 12z"/></svg>