<svg xmlns="http://www.w3.org/2000/svg" width="1800" height="900" viewBox="0 0 1800 900"><path fill="#cc092f" d="M0 0h1800v900H0z"/><path fill="#ffd200" d="M0 0h1200v900H0z"/><path fill="#0046ae" d="M0 0h600v900H0z"/><g><path d="M851.49 183.24c-2.72-.12-5.4.61-7.68 2.1 2.7.8 4.53 3.28 4.5 6.1v7.42h-7.42a6.3 6.3 0 0 1-6.09-4.46 15.1 15.1 0 0 0 0 15.36 6.29 6.29 0 0 1 6.1-4.5h7.42v35.67a6.3 6.3 0 0 1-4.2 6c3.54.48 6.59 5.23 7.42 7.83.84-2.6 3.88-7.35 7.42-7.84a6.28 6.28 0 0 1-4.25-5.99v-35.68h7.43a6.3 6.3 0 0 1 6.1 4.46 15.1 15.1 0 0 0 0-15.36 6.29 6.29 0 0 1-6.1 4.5h-7.43v-7.42a6.3 6.3 0 0 1 4.46-6.1 12.97 12.97 0 0 0-7.68-2.1v.01z"/><path fill="#f5d402" d="M851.49 184.78c-1.5 0-2.98.25-4.4.72a7.85 7.85 0 0 1 2.76 5.93v7.43c0 .1-.02.2-.05.3v1.18h-1.18l-.3.06h-7.43c-2.26-.02-4.4-1-5.88-2.72-.5 1.42-.76 2.9-.77 4.4 0 1.5.25 2.99.71 4.4a7.85 7.85 0 0 1 5.94-2.76h8.96c0 .16-.05.3-.05.46v.77c.03.1.04.2.05.3v35.69a7.53 7.53 0 0 1-2.76 5.58c1.1.69 2.09 1.55 2.91 2.56.6.83 1.12 1.72 1.54 2.66.42-.94.93-1.83 1.54-2.66.81-.98 1.78-1.83 2.86-2.5a7.57 7.57 0 0 1-2.76-5.64v-37.17h1.23l.3-.05h7.43c2.26.02 4.4 1 5.88 2.71.5-1.41.76-2.9.77-4.4 0-1.5-.25-2.98-.71-4.4a7.85 7.85 0 0 1-5.94 2.76h-7.43c-.1 0-.2-.02-.3-.05h-1.18v-1.18c-.03-.1-.05-.2-.05-.3v-7.43c.01-2.26 1-4.4 2.71-5.88-1.42-.5-2.9-.76-4.4-.77"/><path d="M944.4 313.99a39.43 39.43 0 0 1-10.9-11.11c-6.37-10.23-9.06-22.78-9.06-35.53 0-5.4 6.04-11.46 6.04-15.82a76 76 0 0 0-.61-10.54c2.14.29 5.89 4.1 5.89 4.1s-.13-10.95-3.59-12.86c0 0 1.4-1.44 6.45-1.59-1.42-3.6-8.44-7.98-8.44-7.98a4.57 4.57 0 0 1 1.84-1.64 22.9 22.9 0 0 1 6.14-2 65.97 65.97 0 0 1-6.9-1.9 163.05 163.05 0 0 1-19.15-7.77 56.44 56.44 0 0 0-25.6-6c-3.58.01-8.84.1-11.93 2.16-2.82 1.88-2.6 4.31-3.58 5.17-2.33 2.02-6.32 1.95-8.24 1.95-12.44 0-12.9 13.3-12.9 13.3s3.18-4.8 8.8-4.8c9.35 0 16.43 5.09 16.43 7 0 .78-.96.93-1.02.93-6.1 0-15.33-3.52-20.22-3.69v2.4c10.93 3.81 22 9.2 22 32.93 0 14.94-1.78 30.19-9.26 42.18a39.75 39.75 0 0 1-10.95 11.1l44.38 8 44.39-8z"/><path d="m900.02 303.99-44.38 10c-2.02-.61-11.51-3.56-18.18-7.27-11.72-6.53-17.8-13.03-31.74-13.67v-10.6c0-5.66 2.05-10.76 2.05-16.17-5.87-1.58-22.17-21.51-37.21-30.36-22.13 14.33-39.27 37.86-39.27 48.68 0 0 .67 232.51 0 313.51 0 4.67-2.81 11.27-2.81 11.27 8.07-3.42 22.88-23.68 26-31.39v3.7c12.2-5.57 21.14-20.2 25.14-27.76l.25 3.84c10.9-9.55 24.78-66.04 24.78-66.04l23.13 22.73s-8.37 16.98-11.63 20.02c1.55.17 3.1.26 4.66.25-1.52 2.19-13.14 18.93-16.79 25.24-3.4 5.9-5.81 3.28-11.06 3.28-4.34 0-14.2 6.92-15.81 9.72a20.5 20.5 0 0 0-2.97 9.47c0 3.24 3.43 7.68 3.43 7.68.12-.78.48-1.51 1.02-2.1 0 0 9.01 11.23 10.34 12.7 1.04 1.14 5.65 1.89 7.27.41 4.07-3.7 8-6.28 11.62-11.62 1.87-2.75 2-5.9 4.15-8.86 7.16-9.88 21.41-28.8 24.67-33.12l.62 3.43c3.69-7.46 21.45-21.7 21.45-21.7l18.57 8.54s-34.68 79.74-65.47 92a477.4 477.4 0 0 0 37.22 18.17c2.07-2.49 4.25-5.26 6.4-8.14 9.83-13.16 19.45-28.4 19.45-28.4.67 3.95-4.52 16.19-13.31 31.27-1.73 2.97-3.53 6.07-5.53 9.22 2.23 1.27 4.44 2.55 6.66 3.89 16.29 9.8 31.6 21.07 37.26 31.43l4-10-4-10.02V317.26l2-5-1.98-8.27z"/><g fill="#b07f55"><path d="M900 667.22c-5.75-6.24-17.77-13.85-31.28-20.88 16.34-29.32 24.43-75.66 20.63-84.88 0 0-6.7 24.03-14.9 37.72-7.58 12.69-16.92 26.95-25.95 37.53a205.67 205.67 0 0 0-20.78-7.68c27.06-20.84 54.72-89.74 54.72-89.74l-28.6-13.26s-10.71 12.48-14.19 14.8c0 0-1.48-6.21-2.35-8.4 0 0-4.1 3.1-6.35 3.17 0 0-.67-4.2-1.18-6.96-2.82 1.88-7.52 1.49-7.52 1.49 4.12-1.96 9-13.93 9-13.93l-27.31-36.34s-9.6 46.11-20.53 55.6V336.86l8.65 8.04 13.1-12.24v-9.31l-11.62 10.85v-28.1a94.4 94.4 0 0 0 3.8-6.2c1.87 3.28 7.95 13.33 15.1 19.5 1.17-4.77 8.9-9.31 8.9-9.31s2.77 7.5 7.01 9.37c1.5-2.63 10.4-8.45 10.4-8.45s-7.62 1.16-10.7 4.04c-2.65-.59-3.33-11.05-3.33-11.05s-11.2 5.46-13.16 9.36c-2.13-.57-5.46-8.98-6.76-12.44 2.77-.3 5.56-.46 8.35-.46 3.2 0 7.28 1.52 11.57 3.54 4.7 2.21 9.63 5.02 14.03 7.01 5.63 2.55 14.15 3.07 16.63 3.17a73.8 73.8 0 0 1-9.36 5.53s13.4-.12 22.83-4.81a90.23 90.23 0 0 0 9.83-6.86 36.32 36.32 0 0 1-6.46 11.47c13.84-1.17 20.73-9.07 22.68-11.73a37.68 37.68 0 0 0 5.12 9.47h5v340l-5.02 9.96zM798.05 267.3l.25 6.35v18.68c-5.02-1.72-11.32-9.97-14.38-14.33v-2.56a7.07 7.07 0 0 1 2.46-5.12l-3.03-1.07a8.8 8.8 0 0 0-2.4 5.78v1.49l-9.01 9.67-8.86-13.41v-3.28c0-2.2 1.7-4.67 3.13-6.35l-2.97-1.07c-1.5 1.94-3.08 4.56-3.08 7.01v2.66c-2.08 2.16-10.18 10.5-10.18 10.5l-5.17-11.11c6.2-8.6 16.26-18.22 25.75-25.12 0 0 20.56 18.88 27.49 21.28zM745.93 285.42v15.41l-7.17 6.66V284.6c.2-2.73 1.05-5.38 2.46-7.73l4.7 8.55z"/><path d="M768.25 291.36v9.52l-8.24 7.73v-29.8l8.24 12.55zM757.09 308.56l-8.25-7.68v-11.16l8.25-8.65v27.5zM794.71 297c-1.91 2.7-6.92 9.31-12.33 12.23v-26.16c1.24 2.06 6.93 11.27 12.33 13.92zM779.46 284.4v24.16l-8.25-7.68v-8.55l8.25-7.93zM745.93 310.15v24.11l-7.17-6.7v-10.7l7.17-6.71zM757.08 317.88v8.65l-8.24 7.68V310.2l8.24 7.68zM768.24 310.2v24.01l-8.24-7.73v-8.55l8.24-7.73zM779.45 317.93v8.55l-8.24 7.73V310.2l8.24 7.73zM790.61 334.26l-8.24-7.73v-8.04c2.84-1.73 5.7-4.92 8.24-8.29v24.06zM769.72 344.9l8.7-8.08v198.63s.61 9.85 1.03 16.28l-18.43 18.63v-233.6l8.7 8.15zM756.05 562.94c0 6.39-11.66 21.27-17.3 24.67V336.87l8.6 8.04 8.7-8.09v226.12z"/></g><g fill="#d10429"><path d="m828.34 541.39 6.34-4.35s.43 2.1.98 4.96a8632.86 8632.86 0 0 1-26.06 35.43c-1.92 2.58-3.54 9.16-3.54 9.16s-2.81-1.33-2.81-3.74c0-2.36.3-5.17.3-5.17a8.04 8.04 0 0 1-5.73 2.41c0-2.9 5.62-6.05 5.84-10.19-4.28 3.18-8 1.55-12.95 3.08-5.4 1.66-6.9 3.92-8.55 3.84-.98-.06-1.86-1.74-1.49-2.77.65-1.79 7.32-6.73 11.98-7.63 1.12-.21 9.9 1.92 11.67-.81l20.28-31.28c.7-.13 1.37-.38 2-.72 0 0-.08 5.75 1.73 7.78z"/><path d="M787.52 576.45c.35.38.33.98-.05 1.33l-2.87 2.51a.95.95 0 0 1-1.33-.15.94.94 0 0 1 .05-1.33l2.87-2.51a.85.85 0 0 1 .66-.2c.26.03.5.16.67.35zM791.87 579.47c.85.9.81 2.31-.08 3.16l-.02.02-6.96 6.09a2.38 2.38 0 0 1-3.13-3.58l6.96-6.05c.35-.29.78-.47 1.23-.5.77-.05 1.51.27 2 .86zM795.86 584.18c.85.9.81 2.3-.08 3.16l-.02.02-7.01 6.09c-.98.78-2.4.62-3.17-.35v-.01a2.29 2.29 0 0 1 .1-3.22l6.96-6.04c.32-.3.74-.48 1.17-.52.78-.04 1.54.28 2.05.87zM798.26 587.92c.76-.06 1.5.24 2 .82a2.3 2.3 0 0 1-.1 3.22L793.2 598a2.37 2.37 0 0 1-3.13-3.53l7.02-6.09c.33-.28.74-.44 1.17-.46z"/></g><path d="m899.98 303.99 44.38 10c2.02-.61 11.51-3.56 18.18-7.27 11.72-6.53 17.8-13.03 31.74-13.67v-10.6c0-5.66-2.05-10.76-2.05-16.17 5.87-1.58 22.17-21.51 37.21-30.36 22.13 14.33 39.27 37.86 39.27 48.68 0 0-.67 232.51 0 313.51 0 4.67 2.81 11.27 2.81 11.27-8.08-3.42-22.88-23.68-26-31.39v3.7c-12.2-5.57-21.14-20.2-25.14-27.76l-.26 3.84c-10.9-9.55-24.77-66.04-24.77-66.04l-23.13 22.73s8.37 16.98 11.63 20.02c-1.55.17-3.1.26-4.66.25 1.52 2.19 13.14 18.93 16.79 25.24 3.4 5.9 5.81 3.28 11.06 3.28 4.34 0 14.2 6.92 15.81 9.72a20.5 20.5 0 0 1 2.97 9.47c0 3.24-3.43 7.68-3.43 7.68a4.03 4.03 0 0 0-1.02-2.1s-9.01 11.23-10.34 12.7c-1.04 1.14-5.65 1.89-7.27.41-4.07-3.7-8-6.28-11.62-11.62-1.87-2.75-2-5.9-4.15-8.86-7.16-9.88-21.41-28.8-24.67-33.12l-.62 3.43c-3.69-7.46-21.45-21.7-21.45-21.7l-18.57 8.54s34.68 79.74 65.47 92c0 0-13.4 5.7-29.84 14.23-2.4 1.25-4.87 2.59-7.38 3.94-2.07-2.49-4.25-5.26-6.4-8.14-9.83-13.16-19.45-28.4-19.45-28.4-.67 3.95 4.52 16.19 13.31 31.27 1.73 2.97 3.53 6.07 5.53 9.22a333.89 333.89 0 0 0-6.66 3.89c-16.29 9.8-31.6 21.07-37.26 31.43l-4-10 4-10.02V317.26l-2-5 1.98-8.27z"/><g fill="#b07f55"><path d="M900 667.22c5.75-6.24 17.77-13.85 31.28-20.88-16.34-29.32-24.43-75.66-20.63-84.88 0 0 6.7 24.03 14.9 37.72 7.58 12.69 16.92 26.95 25.95 37.53 6.78-2.93 13.72-5.5 20.78-7.68-27.06-20.84-54.72-89.74-54.72-89.74l28.6-13.26s10.71 12.48 14.19 14.8c0 0 1.48-6.21 2.35-8.4 0 0 4.1 3.1 6.35 3.17 0 0 .67-4.2 1.18-6.96 2.82 1.88 7.52 1.49 7.52 1.49-4.12-1.96-9-13.93-9-13.93l27.31-36.34s9.6 46.11 20.53 55.6V336.86l-8.65 8.04-13.1-12.24v-9.31l11.62 10.85v-28.1a94.4 94.4 0 0 1-3.8-6.2c-1.87 3.28-7.95 13.33-15.1 19.5-1.17-4.77-8.9-9.31-8.9-9.31s-2.77 7.5-7.01 9.37c-1.5-2.63-10.4-8.45-10.4-8.45s7.62 1.16 10.7 4.04c2.65-.59 3.33-11.05 3.33-11.05s11.2 5.46 13.16 9.36c2.13-.57 5.46-8.98 6.76-12.44-2.77-.3-5.56-.46-8.35-.46-3.2 0-7.28 1.52-11.57 3.54-4.7 2.21-9.63 5.02-14.03 7.01-5.63 2.55-14.15 3.07-16.63 3.17a73.8 73.8 0 0 0 9.36 5.53s-13.4-.12-22.83-4.81a90.23 90.23 0 0 1-9.83-6.86 36.32 36.32 0 0 0 6.46 11.47c-13.84-1.17-20.73-9.07-22.68-11.73a37.68 37.68 0 0 1-5.12 9.47h-5v340l5.02 9.96zM1001.95 267.3l-.25 6.35v18.68c5.02-1.72 11.32-9.97 14.38-14.33v-2.56a7.07 7.07 0 0 0-2.46-5.12l3.03-1.07a8.8 8.8 0 0 1 2.4 5.78v1.49l9.01 9.67 8.86-13.41v-3.28c0-2.2-1.7-4.67-3.13-6.35l2.97-1.07c1.5 1.94 3.07 4.56 3.07 7.01v2.66l10.2 10.5 5.16-11.11c-6.2-8.6-16.26-18.22-25.75-25.12 0 0-20.56 18.88-27.49 21.28zM1054.07 285.42v15.41l7.17 6.66V284.6a17.57 17.57 0 0 0-2.46-7.73l-4.7 8.55z"/><path d="M1031.75 291.36v9.52l8.24 7.73v-29.8l-8.24 12.55zM1042.91 308.56l8.25-7.68v-11.16l-8.25-8.65v27.5zM1005.29 297c1.91 2.7 6.92 9.31 12.33 12.23v-26.16c-1.24 2.06-6.93 11.27-12.33 13.92zM1020.54 284.4v24.16l8.25-7.68v-8.55l-8.25-7.93zM1054.07 310.15v24.11l7.17-6.7v-10.7l-7.17-6.71zM1042.92 317.88v8.65l8.24 7.68V310.2l-8.24 7.68zM1031.76 310.2v24.01l8.24-7.73v-8.55l-8.24-7.73zM1020.55 317.93v8.55l8.24 7.73V310.2l-8.24 7.73zM1009.39 334.26l8.24-7.73v-8.04c-2.84-1.73-5.7-4.92-8.24-8.29v24.06zM1030.28 344.9l-8.7-8.08v198.63s-.61 9.85-1.03 16.28l18.43 18.63v-233.6l-8.7 8.15zM1043.95 562.94c0 6.39 11.66 21.27 17.3 24.67V336.87l-8.6 8.04-8.7-8.09v226.12z"/></g><g fill="#d10429"><path d="m971.66 541.39-6.34-4.35s-.43 2.1-.98 4.96c2.72 3.72 18.34 25.03 26.06 35.43 1.92 2.58 3.54 9.16 3.54 9.16s2.81-1.33 2.81-3.74c0-2.36-.3-5.17-.3-5.17a8.04 8.04 0 0 0 5.73 2.41c0-2.9-5.62-6.05-5.84-10.19 4.28 3.18 8 1.55 12.95 3.08 5.4 1.66 6.9 3.92 8.55 3.84.98-.06 1.86-1.74 1.49-2.77-.65-1.79-7.32-6.73-11.98-7.63-1.12-.21-9.9 1.92-11.67-.81l-20.28-31.28a6.66 6.66 0 0 1-2-.72s.08 5.75-1.73 7.78z"/><path d="M1012.48 576.45a.94.94 0 0 0 .05 1.33l2.87 2.51c.41.32 1 .25 1.33-.15a.94.94 0 0 0-.05-1.33l-2.87-2.51a.85.85 0 0 0-.66-.2c-.26.03-.5.16-.67.35zM1008.13 579.47c-.85.9-.81 2.31.08 3.16l.02.02 6.96 6.09a2.38 2.38 0 0 0 3.13-3.58l-6.96-6.05a2.2 2.2 0 0 0-1.23-.5c-.77-.05-1.51.27-2 .86zM1004.14 584.18c-.85.9-.81 2.3.08 3.16l.02.02 7.01 6.09c.98.78 2.4.62 3.17-.35v-.01c.87-.92.82-2.36-.1-3.22l-6.96-6.04c-.32-.3-.74-.48-1.17-.52a2.51 2.51 0 0 0-2.05.87zM1001.74 587.92c-.76-.06-1.5.24-2 .82a2.3 2.3 0 0 0 .1 3.22l6.96 6.04a2.37 2.37 0 0 0 3.13-3.53l-7.02-6.09a1.98 1.98 0 0 0-1.17-.46z"/></g><path fill="#b07f55" d="M889.73 206.64c11.46 0 19.52 5.22 30.36 10.03a93.3 93.3 0 0 0 7.78 3.07 9.58 9.58 0 0 0-2.92 3.69s4.86.9 7.07 4.96c0 0-4.62.53-5.38 3.23 2.6.2 5.16 3.46 5.17 6.6l-6.55-2.05a82.4 82.4 0 0 1 1.59 15.36c0 4.09-5.89 8.9-5.89 15.82 0 21.74 5.48 30.09 9.37 36.8 1.52 2.64 2.76 5.66 5.33 7.94-11.22-5.97-19.56-13.44-19.56-20.37v-26.26h-2.92v26.26c0 5.03 1.23 7.37 1.23 7.37 1.76 5.57 5.32 14.15 7.52 17.61-10.32-5.58-15.56-12.56-15.56-15.15v-36.1h-2.92v36.61l.57 2.5c-1.26 1.89-2.88 4.11-4 4.87-1.11-.76-2.69-2.98-3.94-4.86l.56-2.51v-36.6h-2.91v36.09c0 2.59-5.25 9.57-15.57 15.15 2.2-3.46 5.77-12.04 7.53-17.6 0 0 1.23-2.35 1.23-7.38v-26.26H884v26.26c0 6.93-8.3 14.4-19.5 20.37 2.53-2.28 3.75-5.32 5.26-7.93 4.26-7.35 9.53-16.68 9.53-43.26 0-9.97-1.48-16.75-4.05-21.5-.78-1.57-1.83-5.73 4.15-5.73 3.1 0 10.19 5.47 10.19 5.47a9.84 9.84 0 0 0-3.9-6.86 4.2 4.2 0 0 1-1.58-2.92 6.18 6.18 0 0 1 2.76-3.68c.84-.38-12.18-2.65-12.18-8.55 0-1.23.77-2.05 3.48-2.05 3.54 0 9.31 4.25 14.44 4.25 3.79 0 5.28-.92 9.16-.92 4.74 0 14.63 8.98 18.02 8.65-3.78-2.38-9.9-11.37-19.15-11.37-3.2 0-6.11.72-9.11.72-3.84 0-7.62-3.53-11.77-3.53-2.79 0-5.9.15-6.35-.57-.8-1.25-.08-1.98.66-3.02 1.41-1.95 5.37-2.52 9.27-2.66 1.17-.04 2.34-.06 3.43-.05 1.1.01 2.1.06 2.97.06z"/><path fill="#cc092f" d="M852.53 220.69a9.69 9.69 0 0 1 8.53-4.58c2.56 0 11-.18 11-.18 1.12 2.92 6.25 7.8 6.25 12.88 0 0-5.2-9.38-19.73-9.38-2.08-.03-4.15.4-6.05 1.26z"/><path fill="#d10429" d="M876.14 230.6s-3.1 3.26-3.77 5c-3.06-1.16-8.4-6.66-8.4-6.66s4.53 2.64 12.17 1.66z"/><path d="M871.24 221.97s-3.57-1.14-3.57-2.34c0-1.53 1.73-1.53 2.77-.34.5.81.77 1.73.8 2.68z"/><ellipse cx="887.88" cy="223.93" rx="7.37" ry="5.6"/><circle cx="887.87" cy="223.93" r="5.12" fill="#f5d402"/><circle cx="887.88" cy="223.93" r="2.35"/><g><path d="m805.15 591.95 16.2 8.84-3.93 18.03-16.2-8.84z"/><path d="m729.68 418.73-5.84 2.66 65.94 144.42h7.01l-67.11-147.08zm77.76 170.32-4.76 4.92 2.97 6.55 5.78-2.66-4-8.81z"/><path d="M750.17 532.6s5.55 11.47 9.77 13.04c-2.18-.59-9.27 2.01-9.27 2.01s12.5 11.17 23.1 11.9c9 .62 13.36-3.87 13.36-3.87l-1.8-9.52a35.67 35.67 0 0 0-14.3-9.71c-8.9-3.1-20.86-3.85-20.86-3.85zM792.04 512.05s-7.67 6.56-9.77 14.17c-2.1 7.6 1.37 16.25 1.37 16.25l6.44 12.02s8.93-4.76 12.73-11.86c3.8-7.11 2.4-16.7 2.4-16.7s-7.07 2.63-7.97 3.8c1.5-7.88-5.2-17.68-5.2-17.68zM767.39 508.98s-8.72 2.95-17.2 2.44c-8.06-.49-14.77-7.26-14.77-7.26s6.69-4.53 9.99-3.93c-3.63-1.32-8.9-10.42-8.9-10.42s7.48-2.26 14.12.24c6.63 2.5 12.42 9.77 12.42 9.77l4.34 9.16zM770.39 466.38s4.36 9.03 3.33 12.17c1.35-2.09 6.47-5.34 6.47-5.34s3.1 14.62.13 23.65c-2.96 9.03-11.97 12.47-11.97 12.47L758.41 490s-1.48-7.16 1.62-12.83c3.1-5.68 10.36-10.78 10.36-10.78zM713.64 442.47s9.42-.99 18.05 2.58c7.2 3 9.42 8.44 9.42 8.44l3.55 9.52s-10.26 3.84-18.37.9c-8.1-2.94-14.06-12.68-14.06-12.68s5.66-2.15 7.82-1.34c-3.14-1.4-6.41-7.42-6.41-7.42zM743.29 424.8s4.13 5.31 4.26 11.42c1.1-3.24 6.27-6.84 6.27-6.84s5.3 12.86 4.14 21.99c-1.16 9.12-8.8 14.52-8.8 14.52l-9.54-18.09s-3.1-7.41-2.19-13.17c.92-5.75 5.86-9.83 5.86-9.83zM710.64 390.2s-1.71 9.85 1.2 15.53c2.6 5.07 4.25 6.18 4.25 6.18-4.96-3.27-12.45-3.55-12.45-3.55s2.67 10.72 9.04 15.6 16.2 3.75 16.2 3.75 6.46-8.6 6-17.86c-.44-9.27-7.8-19.2-7.8-19.2s-2.9 6.02-3.16 10.52c-1.88-4.64-13.28-10.97-13.28-10.97zM787.64 555.27l.26 3.54c5.88.05 6.75-.53 8.26 1.32a4.98 4.98 0 0 0 5.79 1.21 4.84 4.84 0 0 0 2.38-6.37c-1.1-2.4-3.33-2.92-5.48-2.5-1.32.26-2.19 1.32-3.3 1.9-2.13 1.1-7.91.9-7.91.9z"/><path d="m787.13 552.57 2.86 2.1c-3.07 5-4.03 5.44-3.25 7.7a4.98 4.98 0 0 1-2.04 5.55 4.84 4.84 0 0 1-6.67-1.35c-1.45-2.2-.71-4.37.78-5.97.92-.98 2.27-1.16 3.36-1.8 2.06-1.23 4.96-6.23 4.96-6.23zM767.23 510.57l.26 3.54c5.88.05 6.75-.53 8.26 1.32a4.98 4.98 0 0 0 5.78 1.21 4.83 4.83 0 0 0 2.38-6.37c-1.1-2.4-3.32-2.92-5.47-2.5-1.32.26-2.19 1.31-3.3 1.9-2.14 1.1-7.92.9-7.92.9z"/><path d="m768.42 511.82 2.5 2.52c-3.81 4.47-4.83 4.75-4.41 7.1a4.97 4.97 0 0 1-2.88 5.17 4.84 4.84 0 0 1-6.37-2.38c-1.1-2.4-.03-4.42 1.7-5.77 1.06-.82 2.42-.8 3.59-1.26 2.23-.88 5.87-5.38 5.87-5.38zM747.45 468.72l.26 3.54c5.88.05 6.75-.53 8.26 1.32a4.98 4.98 0 0 0 5.79 1.21 4.84 4.84 0 0 0 2.38-6.37c-1.1-2.4-3.33-2.92-5.48-2.5-1.32.26-2.19 1.31-3.3 1.9-2.13 1.1-7.91.9-7.91.9z"/><path d="m749.08 467.98 2.5 2.52c-3.81 4.47-4.83 4.75-4.41 7.1a4.97 4.97 0 0 1-2.88 5.17 4.84 4.84 0 0 1-6.37-2.38c-1.1-2.4-.03-4.42 1.7-5.77 1.06-.83 2.42-.8 3.6-1.26 2.22-.89 5.86-5.38 5.86-5.38zM726.38 424.54l.26 3.54c5.88.05 6.75-.53 8.26 1.32a4.98 4.98 0 0 0 5.78 1.21 4.84 4.84 0 0 0 2.39-6.37c-1.1-2.4-3.33-2.92-5.48-2.5-1.32.26-2.19 1.32-3.3 1.9-2.13 1.1-7.91.9-7.91.9z"/><path d="m728 423.8 2.5 2.52c-3.8 4.47-4.82 4.75-4.4 7.1a4.98 4.98 0 0 1-2.88 5.17 4.84 4.84 0 0 1-6.37-2.38c-1.1-2.4-.03-4.42 1.7-5.77 1.06-.82 2.42-.8 3.59-1.26 2.23-.88 5.87-5.38 5.87-5.38z"/><g fill="#f5d402"><path d="m807.49 597.06 10.04 5.48-2.43 11.19-10.05-5.49zM763.5 500.09c-2.1.87-5.23-8.3-7.53-13.32-2.35-5.15-7.13-13.1-5.77-13.72 1.49-.68 3.45 3.5 5.86 8.77 2.4 5.27 9.41 17.45 7.44 18.27zM741.87 451.8c-2.1.88-4.41-5.13-6.7-10.15-2.36-5.16-4.65-8.8-3.3-9.42 1.5-.68 3.7 3.84 5.62 8.06 1.87 4.09 6.35 10.69 4.38 11.51zM791.9 561.29c-1.65.44-8.86-14.66-14.7-27.44-5.83-12.78-10.17-23.12-8.82-23.74 1.5-.68 6.22 11.4 12.05 24.17 5.84 12.79 12.72 26.68 11.48 27.01z"/><circle cx="799.97" cy="556.98" r="2.61"/><circle cx="782.05" cy="563.93" r="2.61"/><circle cx="779.55" cy="512.25" r="2.61"/><circle cx="761.62" cy="522.24" r="2.61"/><circle cx="759.78" cy="470.41" r="2.61"/><circle cx="742.28" cy="478.4" r="2.61"/><circle cx="738.71" cy="426.24" r="2.61"/><circle cx="721.21" cy="434.22" r="2.61"/></g><g fill="#097754"><path d="M713.54 396.19s-.26 7.2 2.12 11.29c2.39 4.08 7.7 5.71 7.7 5.71s.26-7.2-2.12-11.28c-2.38-4.09-7.7-5.72-7.7-5.72zM708.56 412.48s6.25.37 9.86 3.14c3.61 2.76 5.01 8.53 5.01 8.53-2.78.15-5.52-.68-7.75-2.35-3.61-2.76-7.12-9.32-7.12-9.32zM728.19 397.94a25.13 25.13 0 0 0-1.84 9.91c.24 5.14 3.24 10.94 3.24 10.94s2.71-6.18 2.47-11.32c-.24-5.14-3.15-8.07-3.87-9.53zM717.66 444.3a23.77 23.77 0 0 0 7.8 6.63c4.72 2.33 11.77 2.42 11.77 2.42a27.35 27.35 0 0 0-8.25-6.9c-4.72-2.34-11.32-2.15-11.32-2.15zM719.18 454.26s2.25 4.42 6.38 6.32c4.13 1.9 12.57 1.74 12.57 1.74a23.47 23.47 0 0 0-7.36-6.03c-4.13-1.9-11.6-2.03-11.6-2.03zM742.95 430.68a17.17 17.17 0 0 0-2.25 8.67c.24 4.54 3.22 9.5 3.22 9.5s2.1-5.69 1.86-10.23c-.21-2.85-1.2-5.6-2.83-7.94zM752.14 436.51s-4.27 5.73-4.88 11.62c-.62 5.9 2.42 11.94 2.42 11.94s5.16-5.18 5.77-11.06c.62-5.9-3.31-12.5-3.31-12.5zM740.37 490.91a12.6 12.6 0 0 0 2.3 4.37 34.32 34.32 0 0 0 4.83 4.63 14 14 0 0 1 6.61-.16c3.67.8 8.54 4.06 8.54 4.06s-5.24-7.83-10.69-10.87a19.77 19.77 0 0 0-11.6-2.03zM739.83 504.37s6.79-2.9 12.38-2.15c5.6.75 10.64 5.17 10.64 5.17s-7.56 2.61-13.15 1.87a19.81 19.81 0 0 1-9.87-4.89zM768.54 472.79s-6.01 6.36-6.51 11.89c-.5 5.52 4.87 10.67 4.87 10.67-.15-1.99.08-3.98.66-5.88a23.24 23.24 0 0 1 2.9-4.82c.47-1.66.64-3.4.5-5.12a23.44 23.44 0 0 0-2.42-6.74zM777.16 480.16s-5.67 5.73-7.16 11.86c-1.5 6.14 1.17 12.68 1.17 12.68s5.15-4.06 6.64-10.2c1.5-6.13-.65-14.34-.65-14.34zM791.34 517.14a41.46 41.46 0 0 1 3.21 9.83c.65 4.48.05 6.03.05 6.03s-2.65 2.6-3.84 4.14c-1.53 1.97-1.75 5.58-1.75 5.58s-5.33-7.92-4.5-13.7c.81-5.8 6.83-11.88 6.83-11.88zM802.56 529.53s-6.82 4.5-9.53 9.12a12.8 12.8 0 0 0-1.3 9.35c3.16-.45 5.94-2.3 7.57-5.04 2.7-4.62 3.26-13.43 3.26-13.43zM757.76 548.55s9.82-.27 15.83 1.2c6 1.48 8.2 4.7 8.2 4.7s-6.76 3.17-12.77 1.69c-6-1.48-11.26-7.6-11.26-7.6v.01zM756.1 536.89s4.43 6.87 10.16 9.37c7.9 3.43 17.04 1.77 17.04 1.77s-4.96-6.1-11.8-8.78c-6.84-2.69-15.4-2.36-15.4-2.36z"/></g><path d="m1092.52 401.94 1.28 2.72a5.88 5.88 0 0 0-3.02 2.55c-.94 1.85.61 4.46.61 4.46s-10.8-.94-12.49.15c-1.53 1 .65 8.48-.36 14.8-1.4 8.8-4.87 8.07-5.02 9.78-.13 1.65 1.34 4.24 1.34 4.24s-2.03.64-2.46 1.49c-.7 1.36.48 3.87-.36 5.53l-16.23 31.84c-.64 1.26-2.36 1.74-3.22 3.43a6.23 6.23 0 0 0-.16 3.84s-3.04.18-4.1 2.25a8.9 8.9 0 0 0-.45 5.17c-1.23.22-2.3 1-2.87 2.1-1.01 1.98.7 3.02.26 3.9l-17.87 35.06c-1.63 3.2-7.34 3.84-10.65 10.34a9.6 9.6 0 0 0 1.38 10.96s-4.77.43-6.04 2.92c-1.3 2.53-.27 6.38 3.18 8.13 3.44 1.76 7.2.34 8.5-2.2 1.26-2.48-1.29-6.6-1.29-6.6 4.04.4 7.9-1.74 9.68-5.38 3.31-6.5.52-11.44 2.15-14.64l17.87-35.07c.44-.87 2.26-.11 3.27-2.1a3.96 3.96 0 0 0 0-3.53 9 9 0 0 0 3.95-3.43c1.05-2.07-.57-4.65-.57-4.65a6.12 6.12 0 0 0 3.02-2.36c.86-1.7.23-3.35.87-4.6l16.23-31.85c.84-1.65 3.56-2.22 4.25-3.58.43-.85-.26-2.87-.26-2.87s3-.3 4.25-1.38c1.3-1.12-1.33-3.52 4.97-9.83 4.52-4.53 11.82-7.2 11.72-9.01-.1-2.01-7.22-10.19-7.22-10.19s3-.25 3.95-2.1c.55-1.25.66-2.66.3-3.99l2.97-.51v-14.08l-11.36 8.3zm-98.14 196.08a3.5 3.5 0 0 0 0 3.12s-3.58-1.12-4.81-.51c-1.16.57 0 17.45 0 17.45s14.3-9.01 14.08-10.29c-.23-1.35-3.23-3.63-3.23-3.63 1.07-.17 2-.83 2.51-1.8.47-.92.53-3.56-2.71-5.21a5.78 5.78 0 0 0-3.18-.72 3.4 3.4 0 0 0-2.66 1.59z"/><g fill="#f5d402"><path d="m1095.12 402.51 6.75 3.43-.1-8.14-6.65 4.71zM1092.5 407.42a3.9 3.9 0 1 0 5.02-1.32 4.2 4.2 0 0 0-2.2-.47 3.35 3.35 0 0 0-2.81 1.8zM1080.89 413.62c-.71.46.25 6.55.05 11.72-.2 4.88-1.76 6.26-2.61 7.94-.8 1.55-3.64 3.38-3.64 3.38l2.36 2.35s1.53-2.38 3.94-7.12c2.84-5.58 2.75-15.69 3.58-16.22 2.19-.77 4.4-1.42 6.66-1.95 0 0-5.44-.3-8.45-.25a6.67 6.67 0 0 0-1.9.15z"/><path d="M1081.5 441.73a77.87 77.87 0 0 1 3.54-7.58c3.31-6.5 10.38-11.22 10.54-12.4.18-1.2-2.45-6.9-2.45-6.9s-6.24 1.2-7.12 2.05c-.85.82-.48 9.26-3.79 15.76-1.23 2.53-2.6 5-4.1 7.38l3.39 1.69z"/><path d="M1097.43 422.22c.05.99-8.17 6.86-11.01 12.44-2.41 4.73-3.43 7.37-3.43 7.37l3.28.51s-.23-3.36.56-4.91c.85-1.68 1.08-3.73 4.91-6.76 4.07-3.2 9.57-6.01 9.53-6.86-.04-.78-6.15-8.34-6.15-8.34a66.2 66.2 0 0 1 2.3 6.55zM1073.37 458.72c4.93-9.69 6.44-10.35 7.06-11.57.67-1.31.51-3.08-1.69-4.2a3.77 3.77 0 0 0-2.15-.46 2.8 2.8 0 0 0-2.2 1.59c-.62 1.22-.28 2.85-5.22 12.54l-11.21 21.96a2.34 2.34 0 0 0 1.02 3.28 2.24 2.24 0 0 0 3.17-1.13l11.22-22.01zM1053.56 483.9c-.61 1.2.43 2.97 2.35 3.95 1.92.98 4 .8 4.6-.4.62-1.2-.48-2.97-2.4-3.95a5.2 5.2 0 0 0-2.76-.62c-.74.01-1.42.4-1.8 1.03zM1049.4 490.15c-.79 1.56.45 3.79 2.77 4.97 2.32 1.18 4.84.89 5.63-.67.8-1.55-.44-3.78-2.76-4.96a6.32 6.32 0 0 0-2.56-.72c-1.2-.18-2.4.36-3.07 1.38zM1046.8 497.12c-.61 1.2.43 2.96 2.35 3.94 1.92.98 4 .79 4.61-.41.61-1.2-.44-2.96-2.35-3.94a5.38 5.38 0 0 0-2.82-.62c-.74 0-1.42.4-1.8 1.03zM1045.1 503.77l-16.83 33.12c-1.4 2.76-7.31 4.47-9.63 9.01-2.33 4.57-.68 8.85 2.36 10.4 3.04 1.55 7.5.42 9.83-4.15 2.3-4.54.23-10.35 1.63-13.1l16.85-33.13a2.3 2.3 0 0 0-.98-3.27 2.37 2.37 0 0 0-1.43-.26c-.78.16-1.44.67-1.8 1.38zM1013.62 560.65c-.94 1.83.13 4.26 2.4 5.42 2.27 1.16 4.9.6 5.84-1.23.93-1.83-.19-4.27-2.46-5.42a5.3 5.3 0 0 0-2.56-.62 3.63 3.63 0 0 0-3.22 1.85zM997.03 598.07c-.6-.06-1.19.22-1.53.72-.48.93.5 2.4 2.2 3.27 1.7.86 3.46.78 3.94-.15.48-.94-.5-2.42-2.2-3.28a4.98 4.98 0 0 0-2.4-.56zM991.2 602.67v12.09l9.83-7.07a10.98 10.98 0 0 0-9.83-5.02z"/></g></g><g><path fill="#f5d402" d="M997.42 333.6c0-6.63 8.7-13.16 8.7-13.16H793.88s8.7 6.53 8.7 13.16v157.98a14.39 14.39 0 0 0 3.33 9.52c2.04 2.86 6.39 6.8 10.9 9.73 13.94 9.05 37.25 18.6 54.88 26.62 14.7 6.69 20.67 9.38 28.31 18.84 7.64-9.46 13.67-12.15 28.36-18.84 17.63-8.02 40.94-17.57 54.88-26.62 4.52-2.93 8.86-6.87 10.9-9.73a14.36 14.36 0 0 0 3.28-9.52V333.6z"/><path fill="#d10429" d="M807.6 422.98V333.6c.04-2.92-.85-5.78-2.56-8.14h189.92a13.52 13.52 0 0 0-2.56 8.14l.06 89.38-92.43 28-92.43-28z"/><path fill="#0b45bb" d="m992.46 422.98-57.24-1.07h-70.39l-57.23 1.07v68.6c0 3.45 3.57 11.53 24.21 21.8 34.11 17 60.33 24.94 68.2 34.62 7.85-9.68 34.07-17.61 68.18-34.61 20.64-10.28 24.21-18.36 24.21-21.8l.06-68.6z"/><path d="M933.84 419.4s33.02-8.32 33.02-43.62c0-27.56-33.1-41.23-34.04-47.81-3.24 11.38 11.05 27.1 11.05 45.71 0 24.1-17.76 25.24-17.76 25.24-4.16 0-5.84 2.97-7.48 2.97-3.5-.36-5.14-4.81-8.6-4.81-3.24 0-5.74 5.02-10.03 5.02-4.3 0-6.73-5.02-9.98-5.02-3.46 0-5.1 4.45-8.6 4.81-1.64 0-3.32-2.97-7.48-2.97 0 0-17.76-1.15-17.76-25.24 0-18.61 14.3-34.33 11.06-45.71-.94 6.58-34.04 20.25-34.04 47.81 0 35.3 33.01 43.62 33.01 43.62l-9.42 17.15s13.65.68 20.9 6.86c8.72 7.45 7.87 23.23 7.87 34.71 0 9.05-1.14 18.59-5.78 22.52-6.23 5.29-10.44 5.68-10.44 11.88 0 5.18 3.97 6.21 10.44 9.63 8.29 4.37 7.9 10.23 20.22 10.23 12.32 0 11.98-5.86 20.27-10.23 6.47-3.42 10.45-4.45 10.45-9.63 0-6.2-4.22-6.6-10.45-11.88-4.64-3.93-5.78-13.48-5.78-22.52 0-11.48-.85-27.26 7.88-34.7 7.25-6.19 20.89-6.87 20.89-6.87l-9.42-17.15z"/><path d="m900 330.42-5.74 16.28-15.61-7.42 7.42 15.61-16.28 5.79 16.28 5.78-7.42 15.56 15.61-7.42 5.74 16.28 5.78-16.28 15.62 7.42-7.43-15.56 16.28-5.78-16.28-5.79 7.43-15.61-15.62 7.42-5.78-16.28zM864.83 421.91s-20.39-4.98-28-15.05a78.57 78.57 0 0 1-29.24 16.13s16.61 7.5 29.24 17.04c5.81-8.33 28-18.12 28-18.12zM935.22 421.91s22.18 9.79 28 18.12c12.62-9.55 29.23-17.05 29.23-17.05a78.58 78.58 0 0 1-29.23-16.12c-7.61 10.06-28 15.05-28 15.05zM873.18 443.61l-7.94 7.93 7.94 7.94 7.93-7.94-7.93-7.93zM926.88 443.61l-7.94 7.93 7.94 7.94 7.93-7.94-7.93-7.93zM871.18 489.94c.1 5.12-.23 10.24-.97 15.3 0 0 11.18-3.29 13.41-14.63 1.05-5.32 2.2-24.92-3.17-28.26l-14.6-2.87a89.45 89.45 0 0 1 5.33 30.46zM919.6 462.35c-5.37 3.34-4.21 22.94-3.17 28.26 2.23 11.34 13.42 14.64 13.42 14.64a94.08 94.08 0 0 1-.98-15.3c0-10.4 1.8-20.7 5.33-30.47l-14.6 2.87zM836.78 462.92a9.3 9.3 0 0 0-5.94 13.56 9.25 9.25 0 0 0-3.27-.46 9.39 9.39 0 1 0 1.94 18.64 9.4 9.4 0 1 0 16.3 9.1l.03-.1c.28-.7.47-1.44.57-2.2.45.63.99 1.2 1.58 1.7a9.4 9.4 0 1 0 10.14-15.62 9.46 9.46 0 0 0 5.07-13.98 9.32 9.32 0 0 0-8.55-4.35 9.46 9.46 0 0 0-6.2 2.87 9.47 9.47 0 0 0-11.67-9.16zM936.6 490.25c1.02 9.59 8.81 17.62 18.43 19.91a21.28 21.28 0 0 1-3.07-8.85c-1.2-11.37 7.59-20.58 19.6-20.58 1.87 0 3.72.22 5.53.66a24.82 24.82 0 0 0-20.88-11.77c-12.02 0-20.82 9.26-19.6 20.63z"/><g fill="#ffd200"><path d="M851.37 373.68c0 18.13 9.67 28.83 22.58 28.83 2.46 0 5.15 3.32 7.47 3.32 3.78 0 6.3-4.2 8.6-4.2 2.93 0 4.9 4.61 9.98 4.61 5.09 0 7.11-4.6 10.04-4.6 2.3 0 4.81 4.2 8.6 4.2 2.32 0 5-3.33 7.47-3.33 12.91 0 22.58-10.7 22.58-28.83 0-14.78-12.42-32.8-11.06-35.73 0 0 24.21 17.37 24.21 37.83 0 32.97-33.42 41.11-33.42 41.11l7.52 16.95s-10.36 1.55-16.69 6.65c-8.44 6.8-8.55 25.2-8.55 37.63 0 14.65.55 20.85 5.84 24.83 5.58 4.19 9.78 5.1 9.78 9.37 0 3.72-4.35 5.24-9.99 7.73-6.41 2.82-7.05 7.73-16.33 7.73-9.28 0-9.86-4.9-16.28-7.73-5.63-2.49-9.98-4.01-9.98-7.73 0-4.28 4.2-5.18 9.78-9.37 5.29-3.98 5.83-10.18 5.83-24.83 0-12.44-.1-30.82-8.55-37.63-6.32-5.1-16.69-6.65-16.69-6.65l7.53-16.95s-33.43-8.14-33.43-41.1c0-20.47 24.22-37.84 24.22-37.84 1.35 2.92-11.06 20.95-11.06 35.73zm35.99 136.13c-6.57 0-10.75 1.39-10.75 3.38 0 2 4.18 3.33 10.75 3.33 1.75 0 3.73-1.02 3.73-3.33a3.47 3.47 0 0 0-3.73-3.38zm25.34 0a3.46 3.46 0 0 0-3.74 3.38c0 2.3 1.99 3.33 3.74 3.33 6.57 0 10.75-1.34 10.75-3.33 0-2-4.19-3.38-10.75-3.38z"/><path d="m900.06 341.38 3.68 10.4 9.93-4.77-4.7 9.99 10.34 3.68-10.35 3.69 4.71 9.93-9.93-4.71-3.73 10.34-3.69-10.34-9.93 4.7 4.7-9.92-10.33-3.69L891.1 357l-4.71-9.99 9.93 4.76 3.74-10.39zM817.31 423.28s12.61 6.28 18.95 11.88l.35.3.2-.25c6-6.87 17.1-12.7 17.1-12.7s-10.67-2.94-17.4-10.65c-7.11 7.25-19.2 11.42-19.2 11.42zM982.72 423.3s-12.6 6.28-18.94 11.87l-.36.3-.2-.25c-5.99-6.87-17.1-12.7-17.1-12.7s10.68-2.94 17.4-10.64c7.12 7.25 19.2 11.42 19.2 11.42zM873.18 447.4l4.14 4.14-4.14 4.2-4.2-4.2 4.2-4.14zM926.88 447.4l4.2 4.14-4.2 4.2-4.15-4.2 4.15-4.14zM878.81 465.52c2.9 4 2.4 10.46 2.4 19.45.18 5.11-2.42 9.91-6.8 12.55 0-21.8-2.25-27.04-3.43-33.64l7.83 1.64zM929.08 463.88c-1.19 6.6-3.43 11.84-3.43 33.63a14.07 14.07 0 0 1-6.81-12.54c0-8.99-.5-15.45 2.4-19.45l7.84-1.64zM846.6 472.13a7.1 7.1 0 0 1-.3 4.25 10.7 10.7 0 0 0-11.57 2.97 7.3 7.3 0 0 1-1.33-1.54 7.17 7.17 0 0 1-.97-2.15 7.3 7.3 0 0 1 14.18-3.53zM857.52 485.79a7.1 7.1 0 0 1-4.13 1.02 10.7 10.7 0 0 0-6.4-10.09 7.3 7.3 0 0 1 1.05-1.74 7.17 7.17 0 0 1 1.74-1.59 7.3 7.3 0 0 1 7.74 12.4zM847.9 500.39a7.1 7.1 0 0 1-2.24-3.62 10.7 10.7 0 0 0 7.61-9.2 7.3 7.3 0 0 1 1.98.46c.74.27 1.44.66 2.05 1.16a7.3 7.3 0 0 1-9.4 11.2zM831.05 495.75a7.1 7.1 0 0 1 2.74-3.25 10.7 10.7 0 0 0 11.11 4.4c.15.66.21 1.34.17 2.02-.03.79-.19 1.57-.47 2.3a7.3 7.3 0 0 1-13.55-5.47zM830.25 478.29a7.1 7.1 0 0 1 3.94 1.6 10.7 10.7 0 0 0-.75 11.92 7.3 7.3 0 0 1-1.87.8c-.76.21-1.55.3-2.34.26a7.3 7.3 0 0 1 1.02-14.58z"/><circle cx="842.67" cy="486.47" r="7.07"/><path d="M966.7 476.94c-11.73 2.27-20.17 12.63-18.94 24.73-3.74-3.1-6.47-7.27-6.96-11.88-.95-8.98 5.57-15.92 15.4-15.92 3.72.03 7.36 1.1 10.5 3.07z"/></g><path d="M1001.97 322.02H798.03c2.7 2.72 6.13 7.06 6.13 11.57v157.98a13.6 13.6 0 0 0 .78 4.79 14.22 14.22 0 0 0 2.17 3.77l.03.05c2 2.53 4.3 4.8 6.87 6.73a52.99 52.99 0 0 0 3.6 2.58h.01c10.86 7.05 27.58 14.46 42.77 21.2 4.23 1.87 8.36 3.7 11.9 5.3v.01l.34.15c13.9 6.33 20.1 9.15 27.37 17.65 7.28-8.53 13.46-11.34 27.5-17.73l.15-.07c3.54-1.61 7.66-3.44 11.9-5.31 15.2-6.73 31.91-14.14 42.77-21.19a49.83 49.83 0 0 0 8.42-6.89 28.07 28.07 0 0 0 2.06-2.43l.02-.03h.01l.01-.02a14.67 14.67 0 0 0 2.2-3.79c.56-1.52.83-3.14.8-4.77V333.6c0-4.5 3.43-8.85 6.13-11.57zm-2.96 11.57v157.98c.03 2.01-.31 4-1 5.89a17.7 17.7 0 0 1-2.63 4.56 32.2 32.2 0 0 1-2.36 2.78 53.13 53.13 0 0 1-8.97 7.35c-11.1 7.2-27.93 14.67-43.22 21.44-4 1.77-7.9 3.5-11.86 5.3l-.16.07c-14.34 6.52-20.2 9.19-27.58 18.32L900 558.8l-1.23-1.52c-7.34-9.09-13.24-11.77-27.45-18.24l-.33-.15h-.02c-3.97-1.81-7.86-3.53-11.86-5.3-15.3-6.78-32.13-14.24-43.22-21.44l-.03-.02-.01-.01a49.73 49.73 0 0 1-3.78-2.71 40.41 40.41 0 0 1-7.5-7.4 17.21 17.21 0 0 1-2.61-4.56c-.67-1.89-1-3.88-.97-5.88V333.6c0-5.84-8.04-11.88-8.06-11.9v-2.85h214.14v2.86c-.02.01-8.06 6.05-8.06 11.89zm-4.8-9.72v-.01h4.04l-2.05 2.57a11.81 11.81 0 0 0-2.2 7.16v137.2h-.01v20.78c0 2.81-1.96 8.24-11.23 15v.01a77.87 77.87 0 0 1-6.03 3.96c-2.32 1.39-4.9 2.8-7.8 4.25h-.03v.01a734.51 734.51 0 0 1-33.68 15.51c-16.95 7.44-29.23 12.82-33.99 18.67l-.02.03v.01l-1.24 1.44-1.2-1.47c-4.75-5.86-17.04-11.24-34-18.68a735.1 735.1 0 0 1-33.65-15.5l-.02-.01c-8.77-4.37-14.55-8.38-18.3-11.82-.74-.69-1.4-1.34-2-1.98-3.8-4.1-4.79-7.4-4.79-9.42v-158c.06-2.55-.72-5.06-2.21-7.15l-2.05-2.56h6.82v-.01H994.2zm-2.78 3.16H807.77c.93 2.06 1.41 4.3 1.41 6.56v157.98c0 1.44.8 3.9 3.95 7.27a33.4 33.4 0 0 0 1.82 1.8c3.55 3.27 9.08 7.1 17.57 11.32l.02.02a727.95 727.95 0 0 0 33.5 15.43c16.14 7.07 28.13 12.34 33.96 18.22 5.82-5.88 17.82-11.15 33.95-18.22a727.65 727.65 0 0 0 33.53-15.45h.04v-.01a114.6 114.6 0 0 0 7.58-4.12 74.68 74.68 0 0 0 5.8-3.8c8.18-5.98 9.92-10.3 9.92-12.46V333.6c0-2.26.47-4.5 1.4-6.56h-.79z"/></g></g></svg>