<svg xmlns="http://www.w3.org/2000/svg" viewBox="0 0 1200 600"><path fill="#060" d="M0 423.9h1200V600H0z"/><path fill="#fff" d="M0 165.3h1200v263.2H0z"/><path fill="#c00" d="M0 0h1200v171.4H0z"/><path fill="#f8c300" d="M658.8 343.7a32.7 32.7 0 0 1-54.8-20.8v-25.7a10.7 10.7 0 0 1 19.9-5.1 25.3 25.3 0 1 0-48-.1 10.7 10.7 0 0 1 19.9 5v25.7a32.6 32.6 0 0 1-54.8 20.8 33.8 33.8 0 0 1-51.2 14.9c3.1 31.2 49.9 24.8 53.4-5.5 14.7 25.8 47 18.4 56.5-13.2h.1c9.5 31.6 41.8 39 56.5 13.2 3.5 30.4 50.3 36.7 53.4 5.5a33.4 33.4 0 0 1-50.9-14.7zm-77.1-62.9a18.5 18.5 0 0 1 36.5 0 17.1 17.1 0 0 0-18.3 8.2 17.2 17.2 0 0 0-18.2-8.2zm-17 97.5zm-31 5.1s4.6-3.2 9.5-4.1c-.9-3.9 1-9.3 3.6-12.3 2.8 1.9 6.7 5.7 7.7 10.2 6.9-.9 10.2 1.1 10.2 1.1-6.5 14.1-19.6 16.5-31 5.1zm82.1-6.7zm-31.4 0s5.1-2.5 10-2.5c-.3-4 2.5-9.1 5.6-11.5 2.4 2.3 5.7 6.7 5.9 11.3 6.9.2 9.9 2.7 9.9 2.7-8.7 12.8-22 13.1-31.4 0zm82.1 6.7zm-9.3-4.3c6.8 1.4 9.3 4.3 9.3 4.3-10.7 11.3-23.8 9.4-31-5.1 0 0 5.4-1.6 10.3-.9.4-4 3.9-8.5 7.4-10.5 2 2.8 4.5 7.7 4 12.2zm27.9 24-3.9 13.1a284.1 284.1 0 0 0-162.4 0l-3.9-13.1a298.8 298.8 0 0 1 170.2 0zm-105.5-204h15.6l4.8-14.8 4.8 14.8h15.6l-12.6 9.2 4.8 14.8-12.6-9.2-12.6 9.2 4.8-14.8-12.6-9.2zm-60 16.1h15.6l4.8-14.8 4.8 14.8h15.6l-12.6 9.2 4.8 14.8L540 230l-12.6 9.2 4.8-14.8-12.6-9.2zm-43.9 43.9h15.6l4.8-14.8 4.8 14.8h15.6l-12.6 9.2 4.8 14.8-12.6-9.2-12.6 9.2 4.8-14.8-12.6-9.2zm-8.3 84 4.8-14.8-12.6-9.2h15.6l4.8-14.8 4.8 14.8h15.6l-12.6 9.2 4.8 14.8-12.6-9.2-12.6 9.2zm172.2-127.9h15.6l4.8-14.8 4.8 14.8h15.6l-12.6 9.2 4.8 14.8L660 230l-12.6 9.2 4.8-14.8-12.6-9.2zm43.9 43.9h15.6l4.8-14.8 4.8 14.8h15.6l-12.6 9.2 4.8 14.8-12.6-9.2-12.6 9.2 4.8-14.8-12.6-9.2zm49.1 84-12.6-9.2-12.6 9.2 4.8-14.8-12.6-9.2h15.6l4.8-14.8 4.8 14.8h15.6l-12.6 9.2 4.8 14.8z"/></svg>