<svg xmlns="http://www.w3.org/2000/svg" viewBox="0 0 21 20"><linearGradient id="a" x1="10" x2="10" y1="545.9" y2="526.2" gradientTransform="translate(0 -526)" gradientUnits="userSpaceOnUse"><stop offset="0" stop-color="#f7943e" /><stop offset=".3" stop-color="#dc4d54" /><stop offset=".6" stop-color="#c71882" /><stop offset="1" stop-color="#5c2d91" /></linearGradient><path d="M14 0H6a6 6 0 0 0-6 6v8a6 6 0 0 0 6 6h8a6 6 0 0 0 6-6V6a6 6 0 0 0-6-6zm4 14c0 2.2-1.8 3.9-3.9 3.9H6c-2.2.1-4-1.7-4-3.9V6a4 4 0 0 1 4-4h8a4 4 0 0 1 4 4v8z" /><path d="M10 4.8A5.2 5.2 0 0 0 4.8 10c0 2.9 2.3 5.2 5.2 5.2s5.2-2.3 5.2-5.2-2.3-5.2-5.2-5.2zm0 8.4c-1.7 0-3.2-1.4-3.2-3.2S8.3 6.8 10 6.8c1.7 0 3.2 1.4 3.2 3.2 0 1.7-1.5 3.2-3.2 3.2z" /><circle cx="15.2" cy="4.9" r="1.2" /></svg>
