<svg xmlns="http://www.w3.org/2000/svg" viewBox="0 0 20 20"><path d="M6.9 0H13c5.7 0 7 1.3 7 6.9V13c0 5.6-1.3 6.9-6.9 6.9H6.9C1.3 20 0 18.7 0 13.1V6.9C0 1.3 1.3 0 6.9 0" /><path class="center" d="M16.4 6.9c.1-.3 0-.5-.4-.5h-1.5c-.4 0-.5.2-.6.4 0 0-.7 1.8-1.8 3-.3.3-.5.4-.7.4-.1 0-.2-.1-.2-.4V6.9c0-.4-.1-.5-.4-.5H8.4c-.2 0-.4.2-.4.3 0 .4.5.4.6 1.4v2.1c0 .5-.1.6-.3.6-.4 0-1.6-1.8-2.3-3.9-.2-.4-.3-.5-.7-.5H3.9c-.4 0-.5.2-.5.4 0 .4.5 2.3 2.3 4.8 1.2 1.7 2.9 2.7 4.4 2.7.9 0 1-.2 1-.6v-1.3c0-.4.1-.5.4-.5.2 0 .6.1 1.5.9 1 1 1.2 1.4 1.7 1.4h1.5c.4 0 .6-.2.5-.6a6 6 0 0 0-1.2-1.7l-1-1.1c-.2-.3-.2-.4 0-.6-.1 0 1.7-2.5 1.9-3.3" /></svg>
