<svg xmlns="http://www.w3.org/2000/svg" width="48" height="58" viewBox="0 0 48 58"><path d="M29.62 34.66a12.5 12.5 0 1 0-11.24 0A24.04 24.04 0 0 0 0 58h2a22 22 0 0 1 44 0h2a24.04 24.04 0 0 0-18.38-23.34ZM13.5 23.5A10.5 10.5 0 1 1 24 34a10.51 10.51 0 0 1-10.5-10.5Zm16.16 0a5.66 5.66 0 1 1-11.32 0h-2a7.66 7.66 0 1 0 15.32 0h-2ZM25 0h-2v8h2V0Zm14.5 24.5h8v-2h-8v2Zm-31-2h-8v2h8v-2Zm36.35-9.88-1-1.74-6.93 4 1 1.74ZM3.15 34.38l1 1.74 6.93-4-1-1.74ZM36.62 3.65l-1.73-1-4 6.93 1.73 1ZM11.08 14.88l-6.93-4-1 1.74 6.93 4Zm33.77 19.5-6.92-4-1 1.74 6.92 4ZM17.12 9.58l-4-6.93-1.74 1 4 6.93Z"/></svg>
