<svg xmlns="http://www.w3.org/2000/svg" viewBox="0 0 221 72"><path d="M98.3 22.5H84.2V.4h-8.1v29.2h22.2zM102.5 29.6h8.2V.4H99.2v6.3h3.3zM125.4 13.6l12.5 16h7.1V.4h-8v15.4L125 .4h-7.6v29.2h8zM63.6 29.6h8.6L59.8.2H52l-7.3 17.3h-5.1v6.4H42l-2.4 5.7H48l2.3-5.7h11.1l2.2 5.7zM52.8 17.5l3.1-7.7 3 7.7h-6.1zM157.4 29.6h-8.6L161.2.1h7.8l7.3 17.3h5.1v6.4H179l2.4 5.7H173l-2.3-5.7h-11.1l-2.2 5.8zm10.8-12.1-3.1-7.7-3 7.7h6.1z" class="st0"/><g><path d="M42.7 59.7h14.1v-6.4H42.7v-4.4h15.6V42H34.7v29.2h23.8v-6.8H42.7zM63.2 49.1H72v22.1h8.1V49.1h8.7V42H63.2zM184.1 42l-6.7 18.5-6.6-18.5h-9.1l11.9 29.5h7.5L193 42zM17.7 41.8H3.3v17.3H0v6.4h3.3v5.7h8.1v-5.7h6.2a11.8 11.8 0 1 0 .1-23.7zm-2.2 17.4h-4V48.3h4c4.1 0 6.6 1.9 6.6 5.4-.1 3.4-2.5 5.5-6.6 5.5zM196.9 71.2h-8.6l12.4-29.5h7.8l7.3 17.3h5.1v6.4h-2.4l2.4 5.7h-8.5l-2.3-5.7H199l-2.1 5.8zm10.8-12.1-3.1-7.7-3 7.7h6.1zM120.2 53.9A12 12 0 0 0 108.3 42H94v17.3h-3.3v6.4H94v5.7h8.1v-5.7h3.7l3.8 5.7h9.4l-4.9-7.2c3.7-2 6.1-5.9 6.1-10.3zm-18-5.4h4c4.1 0 6.6 1.9 6.6 5.4 0 3.4-2.5 5.5-6.6 5.5h-4V48.5z" class="st0"/><radialGradient id="SVGID_1_" cx="140.2" cy="49.4" r="15.9" fx="140" fy="49.5" gradientTransform="matrix(-.6428 -.766 .6128 -.5142 200 182.3)" gradientUnits="userSpaceOnUse"><stop offset="0" stop-color="#f1e2cf"/><stop offset="1" stop-color="#d2bea6"/></radialGradient><path fill="url(#SVGID_1_)" d="M134.9 41.8c2.7 0 4.9.8 6.6 2.1 1.2.9 2.2 2 3.1 3.2l1.2 1.9a18.6 18.6 0 0 1 1.1 2l.1-.1c0-1.7-.5-3.3-1.2-4.7-.5-1-1.2-1.9-2-2.8 1.6-1 3.6-1.7 6.1-1.7 10.4 0 13.6 13.3 7.1 21.3-5.8 7-14.6 8.8-14.6 8.8s-8.8-1.7-14.6-8.8c-6.5-7.8-3.2-21.2 7.1-21.2zm-8.6-4.5c-1.6.2-2.7-.8-2.7-.8s.7 2.1 4.3 3.5c3.9 1.6 5.4.2 9 .6h.1l-.7-.5c-1-.6-2.1-1.2-3.3-1.4l-.9-.2h-1c-.6 0-1.3 0-1.9.2a4 4 0 0 1 1.8-1l.5-.1.5-.1h1.1c1.4.1 2.8.6 4.1 1.3l.9.6.4.3.3.2c-.9-2-2.7-4.6-6.6-4.5-2.5.1-4.3 1.7-5.9 1.9z"/></g></svg>
