<svg xmlns="http://www.w3.org/2000/svg" width="80.07" height="72.34" viewBox="0 0 80.07 72.34">
  <defs>
    <style>
      .cls-1 {
        fill: #494450;
        fill-rule: evenodd;
      }
    </style>
  </defs>
  <path id="props_icon_mat" class="cls-1" d="M1192.43,1327.21l9.25-11.38a10.425,10.425,0,0,0,1.87-3.68,12.824,12.824,0,0,0-8.84-15.89,15.685,15.685,0,0,0-16.62,5.35l-29.2,35.96a15.742,15.742,0,0,0-2.57,4.39c-0.16.42-.3,0.86-0.43,1.3a19.32,19.32,0,0,0,13.28,23.85,23.737,23.737,0,0,0,6.48.9h26.38l33.14-40.8h-32.74Zm-12.26-23.64,0.13-.16a12.865,12.865,0,0,1,13.63-4.4,9.987,9.987,0,0,1,6.88,12.36,7.619,7.619,0,0,1-1.36,2.66l-24.81,30.55a12.814,12.814,0,0,0-9.33-12.12,15.586,15.586,0,0,0-8.62.02Zm-14.52,61.58a20.991,20.991,0,0,1-5.71-.8,16.454,16.454,0,0,1-11.31-20.3,12.727,12.727,0,0,1,2.45-4.65l0.03-.03a12.865,12.865,0,0,1,13.43-4.16,10,10,0,0,1,6.87,12.36,7.894,7.894,0,0,1-1.45,2.79l-0.03.03a7.743,7.743,0,0,1-8.05,2.48,5.912,5.912,0,0,1-4.06-7.28,4.438,4.438,0,0,1,5.48-3.03,3.221,3.221,0,0,1,1.94,1.55,3.158,3.158,0,0,1,.29,2.46l2.75,0.78a6.111,6.111,0,0,0-4.2-7.55,7.306,7.306,0,0,0-9,5.01,8.749,8.749,0,0,0,6.02,10.81,10.31,10.31,0,0,0,5.75-.01,10.6,10.6,0,0,0,5.29-3.42l17.96-22.12h18.95l-28.48,35.08h-14.92Zm25.03,0h-6.42l28.48-35.08h6.43Zm-11.69-53.51-1.11-.91,4.9-6.01a9.918,9.918,0,0,1,7.83-3.79,10.324,10.324,0,0,1,2.76.38,7.145,7.145,0,0,1,4.91,8.81l-1.38-.39a5.7,5.7,0,0,0-3.92-7.04,8.661,8.661,0,0,0-9.1,2.93l-0.23.28Z" transform="translate(-1145.12 -1295.66)"/>
</svg>
