<svg xmlns="http://www.w3.org/2000/svg" width="24" height="24" viewBox="0 0 28.38 28.34">
  <path fill="#615c69" fill-rule="evenodd" d="M25.49.01H13.47a2.87 2.87 0 0 0-2.88 2.86v6.3H3.4A3.38 3.38 0 0 0 0 12.52v9.4a3.38 3.38 0 0 0 3.39 3.36h.8v3.07h3.38l3.04-3.07h6.8a3.38 3.38 0 0 0 3.4-3.36v-6.24l1.12 1.12h3.2v-2.18h.35a2.87 2.87 0 0 0 2.88-2.86V2.87A2.87 2.87 0 0 0 25.49.01Zm-7.05 21.9a1.01 1.01 0 0 1-1.02 1h-7.8l-3.04 3.07h-.02v-3.07H3.4a1.01 1.01 0 0 1-1.03-1v-9.39a1.01 1.01 0 0 1 1.03-1h14.03a1.01 1.01 0 0 1 1.02 1v9.4ZM26 11.76a.5.5 0 0 1-.51.49h-2.71v2.05l-1.98-1.95a3.38 3.38 0 0 0-3.38-3.19h-4.46v-6.3a.5.5 0 0 1 .51-.5h12.02a.5.5 0 0 1 .51.5v8.9ZM6.21 16.04a1.18 1.18 0 1 0 1.18 1.18 1.18 1.18 0 0 0-1.18-1.18Zm4.26 0a1.18 1.18 0 1 0 1.18 1.18 1.18 1.18 0 0 0-1.18-1.18Zm4.25 0a1.18 1.18 0 1 0 1.18 1.18 1.18 1.18 0 0 0-1.18-1.18Z"/>
</svg>
