<svg xmlns="http://www.w3.org/2000/svg" viewBox="0 0 28.38 28.34">
  <path fill="#615c69" fill-rule="evenodd" d="M23.8 1.74v-.59L23.77 0H4.6l-.03 1.15v.59H0v1.18c0 .32.08 7.67 6.63 10.7a15.38 15.38 0 0 0 4.44 6.54v1.73c-2.68.68-5.12 2.57-5.12 5.26v1.18h16.47v-1.18c0-2.7-2.44-4.58-5.13-5.26v-1.73a15.38 15.38 0 0 0 4.44-6.54c6.56-3.03 6.63-10.38 6.63-10.7V1.74H23.8ZM2.47 4.1h2.19a38.13 38.13 0 0 0 .9 6.04A10.05 10.05 0 0 1 2.47 4.1Zm12.95 14.52-.5.35v4.92l1.03.14a5.69 5.69 0 0 1 3.7 1.94H8.72a5.69 5.69 0 0 1 3.7-1.94l1.02-.14v-4.92l-.5-.35c-5.13-3.7-5.9-13-6-16.26h14.48c-.1 3.27-.86 12.56-6 16.26Zm7.38-8.5a38.12 38.12 0 0 0 .9-6.02h2.18a10.2 10.2 0 0 1-3.08 6.03Z"/>
</svg>
