<svg xmlns="http://www.w3.org/2000/svg" width="24" height="24" viewBox="0 0 24 24"><path fill="#615C69" fill-rule="evenodd" d="M21.999 19.999v2h-2v2h-2v-4h-12v4h-2v-2h-2v-2H0v-2h1.999v-2h2v-2h2v4h12v-4h2v2h2v2h2v2h-2Zm-10.5-10.03 3.382 2.293-1.122 1.655-4.26-2.617V3.999h2v5.97ZM18.859 12c.087-.488.14-.88.14-1.501 0-4.687-3.813-8.5-8.5-8.5-4.687 0-8.5 3.813-8.5 8.5 0 1.249.278 2.431.763 3.501H.612A10.447 10.447 0 0 1 0 10.499C0 4.71 4.71 0 10.499 0c5.79 0 10.5 4.71 10.5 10.499A9.63 9.63 0 0 1 20.88 12h-2.021Z"/></svg>
