<svg xmlns="http://www.w3.org/2000/svg" viewBox="0 0 28.03 28.97">
  <path fill="#615c69" fill-rule="evenodd" d="M27.62 18.75a1.73 1.73 0 1 1-1.73-1.76 1.75 1.75 0 0 1 1.73 1.76Zm-11.87 8.47a1.73 1.73 0 1 1-1.73-1.76 1.75 1.75 0 0 1 1.73 1.76ZM3.87 18.75a1.73 1.73 0 1 1-1.73-1.76 1.75 1.75 0 0 1 1.73 1.76ZM23.47 4a1.73 1.73 0 1 1-1.73-1.76A1.75 1.75 0 0 1 23.47 4ZM8.03 4A1.73 1.73 0 1 1 6.3 2.24 1.75 1.75 0 0 1 8.03 4Zm14.65 23.15-8.66-4.64-8.66 4.64L7 17.32l-7-6.96 9.68-1.43 4.33-8.94 4.33 8.94 9.68 1.43-7 6.96Zm-8.66-7.3 5.6 3-1.08-6.35 4.53-4.5-6.26-.93-2.8-5.77-2.8 5.77-6.25.93 4.53 4.5-1.07 6.35Z"/>
</svg>
