<svg xmlns="http://www.w3.org/2000/svg" viewBox="0 0 94 105" width="94" height="105"><path d="M73 87c1 10 5 16 5 16l-2 2s-6-7-6-19c0-14 7-32 13-46l3 1c-5 13-12 29-13 41 12-15 18-33 18-54 0-6-1-10-4-13s-8-3-12-3h-2c-5 0-10-3-11-12h3c0 7 4 9 8 9h2c4 0 10 0 14 4 3 3 5 8 5 15 0 23-7 43-21 59ZM59 34h-4s1 13 9 19l2-2c-7-5-7-17-7-17ZM45 98h4V74h-4v24ZM19 12h2c5 0 10-3 11-12h-3c0 7-4 9-8 9h-2C15 9 9 9 5 13c-3 3-5 8-5 15 0 23 7 43 21 59-1 10-5 16-5 16l2 2s6-7 6-19c0-14-7-32-13-46l-3 1c5 13 12 29 13 41A86 86 0 0 1 3 28c0-6 1-10 4-13s8-3 12-3Zm9 39 2 2c8-6 9-19 9-19h-4s0 12-7 17Z"/></svg>
