<svg xmlns="http://www.w3.org/2000/svg" viewBox="0 0 94 105" width="94" height="105"><path d="M49 52v2a2 2 0 1 1-4 0v-2a2 2 0 1 1 4 0Zm16-9a21 21 0 0 0-3 0h-6c-6-3-7-13-7-13h-4s-1 10-7 13h-6a21 21 0 0 0-3 0c-3 0-7 1-8 9h4c0-6 3-6 4-6a17 17 0 0 1 2 0h8c4-2 7-6 8-9 1 3 4 7 8 9h8a17 17 0 0 1 2 0c1 0 4 0 4 6h4c-1-8-5-9-8-9ZM29 30c6 1 11 0 14-3a13 13 0 0 0 4-5 13 13 0 0 0 4 5c3 3 8 4 14 3a3 3 0 0 1 3 0l2 4h3c0-3-1-5-3-7a6 6 0 0 0-5-1c-6 1-10 1-12-1-4-4-4-9-4-9h-4s0 5-4 9c-2 2-6 2-12 1-3 0-6 1-8 8l3 1c1-6 4-6 5-5Zm55 16c5 10 10 20 10 35a74 74 0 0 1-4 24l-3-1a71 71 0 0 0 4-23 60 60 0 0 0-2-16c-6 3-26 15-34 31v8l-3 1-1-8h-8l-1 8-3-1v-8C31 80 11 68 5 65a59 59 0 0 0-2 16 71 71 0 0 0 4 23l-3 1a74 74 0 0 1-4-24c0-15 5-25 10-35 3-7 7-14 7-23a84 84 0 0 0-2-22l3-1a67 67 0 0 1 2 10 120 120 0 0 1 54 0 67 67 0 0 1 2-10l3 1a84 84 0 0 0-2 22c0 9 4 16 7 23ZM8 57a161 161 0 0 0 78 0l-5-9a55 55 0 0 1-7-35 117 117 0 0 0-54 0v10c0 9-3 17-7 25l-5 9Zm80 5-1-2a163 163 0 0 1-40 5 163 163 0 0 1-40-5l-1 2c5 2 27 14 36 32h10c9-18 31-30 36-32Z"/></svg>
