<svg xmlns="http://www.w3.org/2000/svg" width="94" height="105"><path d="M82 32c-5-15-3-31-3-32h-3c0 1-3 17 3 33a69 69 0 0 0 3 8 163 163 0 0 0-70 0 69 69 0 0 0 3-8c6-16 3-32 3-33h-3c0 1 2 17-3 32a81 81 0 0 1-5 11c-3 8-7 15-7 29a90 90 0 0 0 7 33l3-1a88 88 0 0 1-7-32 58 58 0 0 1 1-12c4-9 17-10 21-10 20 0 20 17 20 18 0 18-10 23-10 23s-7 4-14 1l-1 3a17 17 0 0 0 6 1 21 21 0 0 0 10-2 13 13 0 0 0 2-1 44 44 0 0 1 0 9l3 1V90a26 26 0 0 0 6-11 26 26 0 0 0 6 11v13l3-1a45 45 0 0 1 0-9 11 11 0 0 0 2 1 21 21 0 0 0 10 2 17 17 0 0 0 6-1l-1-3c-7 3-14-1-14-1s-10-5-10-23c0-1 0-18 20-18 4 0 17 1 21 10a58 58 0 0 1 1 12 89 89 0 0 1-7 32l3 1a90 90 0 0 0 7-33c0-14-4-21-7-29a81 81 0 0 1-5-11ZM69 47c-14 0-20 7-22 13-2-6-8-13-22-13-3 0-12 0-18 4l3-6a159 159 0 0 1 74 0l3 6c-6-4-15-4-18-4ZM49 30h-4V11h4v19Z"/></svg>