<svg xmlns="http://www.w3.org/2000/svg" xmlns:xlink="http://www.w3.org/1999/xlink"><path fill="#00843d" d="M0 0h900v600H0z"/><g fill="#fff"><path d="M446.82 66.54a74.66 74.66 0 1 1-77.8 125.48 74.66 74.66 0 0 0 77.8-125.48z"/><path id="a" d="m375.62 121.42 8.45-26.03-22.14 16.09h27.37l-22.14-16.1z"/><use xlink:href="#a" height="600" y="-38.4"/><use xlink:href="#a" x="37.94" y="-18.72"/><use xlink:href="#a" x="-37.94" y="18.72"/><use xlink:href="#a" height="600" y="38.4"/></g><path fill="#d22630" d="M108 0h162v600H108z"/><g id="b" fill="#383739"><path d="M108-39.62v5.88l9.1 8.53-3.06 2.86 6.51 6.04-2.86 2.6v-3.77h-5.56v4.5l12.55 11.76h6.36l.69-4.13h-3.66l3.97-3.7L142 0l-9.96 9.11-3.97-3.7h3.66l-.7-4.2h-6.35l-12.55 11.77v4.5h5.56v-3.76l2.86 2.6-6.51 6.03 3.07 2.91-9.11 8.48v5.88l15.41-14.36-3.07-2.9 6.46-6.05-5.56-5.19 3.7-3.39 7.1 6.57L147.62 0l-15.58-14.3-7.1 6.62-3.7-3.44 5.56-5.2-6.46-6.03 3.07-2.86L108-39.61zm0 28.55v22.14l3.6-3.65v-4.3h3.81L118.5 0l-3.08-3.07h-3.81v-4.35l-3.6-3.65zm26.27 7.84-.53 3.02.53 3.07 3.28-3.07z"/><path fill="#ffc72c" d="M108-38.98v4.66l9.74 9.1-3.07 2.87 6.52 6.04-3.92 3.65v-4.4h-4.72v3.92l12.34 11.5h5.72l.59-3.29h-4.24l5.08-4.76L142.64 0l-10.6 9.7-5.08-4.72h4.24l-.59-3.34h-5.72l-12.34 11.5v3.91h4.72v-4.4l3.92 3.66-6.52 6.04 3.07 2.91-9.74 9.06v4.66l14.77-13.72-3.07-2.9 6.46-6.05-5.56-5.19 4.35-4.02 7.1 6.62L146.92 0l-14.89-13.72-7.1 6.62-4.34-4.02 5.56-5.2-6.46-6.03 3.07-2.86L108-38.98zm0 28.55v20.86l3.18-3.17V2.65h4.07L117.9 0l-2.65-2.65h-4.07v-4.6L108-10.44zm26.59 8.05-.37 2.17.37 2.17 2.33-2.17z"/></g><use xlink:href="#b" width="100%" height="100%" y="109.21" fill="#383739"/><use xlink:href="#b" width="100%" height="100%" y="222.01" fill="#383739"/><use xlink:href="#b" width="100%" height="100%" y="334.8" fill="#383739"/><use xlink:href="#b" width="100%" height="100%" y="447.6" fill="#383739"/><g fill="#383739" transform="matrix(-1 0 0 1 378 0)"><path d="M108-39.62v5.88l9.1 8.53-3.06 2.86 6.51 6.04-2.86 2.6v-3.77h-5.56v4.5l12.55 11.76h6.36l.69-4.13h-3.66l3.97-3.7L142 0l-9.96 9.11-3.97-3.7h3.66l-.7-4.2h-6.35l-12.55 11.77v4.5h5.56v-3.76l2.86 2.6-6.51 6.03 3.07 2.91-9.11 8.48v5.88l15.41-14.36-3.07-2.9 6.46-6.05-5.56-5.19 3.7-3.39 7.1 6.57L147.62 0l-15.58-14.3-7.1 6.62-3.7-3.44 5.56-5.2-6.46-6.03 3.07-2.86L108-39.61zm0 28.55v22.14l3.6-3.65v-4.3h3.81L118.5 0l-3.08-3.07h-3.81v-4.35l-3.6-3.65zm26.27 7.84-.53 3.02.53 3.07 3.28-3.07z"/><path fill="#ffc72c" d="M108-38.98v4.66l9.74 9.1-3.07 2.87 6.52 6.04-3.92 3.65v-4.4h-4.72v3.92l12.34 11.5h5.72l.59-3.29h-4.24l5.08-4.76L142.64 0l-10.6 9.7-5.08-4.72h4.24l-.59-3.34h-5.72l-12.34 11.5v3.91h4.72v-4.4l3.92 3.66-6.52 6.04 3.07 2.91-9.74 9.06v4.66l14.77-13.72-3.07-2.9 6.46-6.05-5.56-5.19 4.35-4.02 7.1 6.62L146.92 0l-14.89-13.72-7.1 6.62-4.34-4.02 5.56-5.2-6.46-6.03 3.07-2.86L108-38.98zm0 28.55v20.86l3.18-3.17V2.65h4.07L117.9 0l-2.65-2.65h-4.07v-4.6L108-10.44zm26.59 8.05-.37 2.17.37 2.17 2.33-2.17z"/><use xlink:href="#b" width="100%" height="100%" y="109.21"/><use xlink:href="#b" width="100%" height="100%" y="222.01"/><use xlink:href="#b" width="100%" height="100%" y="334.8"/><use xlink:href="#b" width="100%" height="100%" y="447.6"/></g><path fill="#ffc72c" d="M121.14 530.82c.8 3.41 3.5 5.98 4.15 9.52 1.3-3.69 2.49-6.78 1.6-10.8-.64-2.89-3.06-4.95-3.34-7.9-2.65 2.37-3.22 5.74-2.41 9.18zm-.67 14.28a22.3 22.3 0 0 0 8.8 7c-.68-2.69.6-4.71 2-6.85 1.71-2.58 2.54-5.1 1.15-8.07a18.15 18.15 0 0 1-2.53 4.14c-1.5 2.05-2.5 3.88-2.73 6.52-1.74-1.3-2.5-3.22-3.44-5.09a16.03 16.03 0 0 0-6.34-6.37c.7 3 1.23 6.17 3.09 8.72zm12.58 9.17c-.48 1.7-.9 3.4-.8 5.18-1.48-1.6-3.45-2.8-5.2-4.08-2.4-1.94-5.19-3.3-7.14-5.76.3 3.62 1.84 6.58 4.79 8.78 3.11 2.33 6.86 3.58 9.93 6.03-.46-3.3.75-5.94 1.78-8.97.86-2.9.03-5.83-1.93-8.04.03 2.45-.74 4.55-1.43 6.86zm6.98 11.13c.65 2.5 2.44 4.53 3.66 6.76-3.3-1.02-6.2-2.8-9.19-4.5-3.55-1.93-7.4-3.16-10.62-5.71 1.6 5.92 5.56 9.36 11.37 11.1 3.96 1.2 7.3.61 12.12 2.55a33.47 33.47 0 0 0-3.06-9.7c-1.2-2.13-2.53-4.23-3.27-6.57-1.06 1.92-1.57 3.88-1 6.07zm12.14 9.06a15.21 15.21 0 0 0 4.5 4.88c-4.69.3-8.45-2.67-13.02-2.8-2.82-.08-5.5.8-8.37.53 3.41 2.3 6.98 4.32 11.14 4.86 5.4.7 10.38-.67 16.34-.13-2.79-1.97-4.18-4.6-5.91-7.43-2.26-3.53-4.4-6.05-8.8-6.62 1.77 1.99 2.8 4.45 4.12 6.71zm16.63 7.78c-8.25 1.4-16.15 3.21-24.58 3.3 9.43 3.29 18.32 3.88 27.67.49 5.06-1.84 8.94-2.82 12.75-2.55 5.58.4 12.36 2.6 19.87 10.52l2.95-2.36c-10.76-9.58-24.83-11.75-38.66-9.4z"/><path fill="#383739" d="m128.27 70.34-12.99-7.96V43.24l12.99-7.96V25.16l12.26-7.39h9.8l18.65-10.49h40.03l18.65 10.5h9.8l12.27 7.38v10.12l12.98 7.96v19.14l-12.98 7.96v10.12l-12.27 7.4h-9.8l-18.65 10.48h-40.03l-18.65-10.49h-9.8l-12.26-7.39z"/><path fill="#00843d" d="m169.07 7.73-18.65 10.49h-9.74l-11.97 7.2v10.12l-12.98 7.94v18.65l12.98 7.94v10.17l11.92 7.2h9.8l18.64 10.5h39.83l18.64-10.5h9.8l11.97-7.2V70.07l12.98-7.94V43.48l-12.98-7.94V25.42l-11.97-7.2h-9.8L208.9 7.73h-39.83zm1.11 3.87h37.66l18.64 10.49h9.75l9.06 5.45v10.12l13.03 7.94v14.41l-13.03 7.95v10.11l-9.06 5.46h-9.75L207.84 94h-37.66l-18.64-10.48h-9.75l-9.11-5.46V67.96L119.7 60v-14.4l12.98-7.95V27.54l9.11-5.45h9.75z"/><path fill="#ffc72c" d="M188.78 53.03V12.02h-18.5L151.63 22.5h-9.72l-8.8 5.3v10.1l-12.98 7.95v6.74h69.08v41h18.5l18.66-10.48h9.72l8.8-5.3v-10.1l12.97-7.96v-6.73z"/><path fill="#fff" d="M120.13 53.03v6.73l12.98 7.96v10.1l8.8 5.3h9.72l18.65 10.49h18.5V52.6h69.08v-6.74l-12.98-7.96V27.8l-8.8-5.3h-9.71l-18.65-10.48h-18.5v41z"/><g id="d" fill="#383739"><g id="c"><path d="m148.45 26.28-3.2-2.98-3.16 1.95 3.2 2.99-4.11 2.55h8.97l7.73 7.29 2.47-2.62-7.52-7.08v-4.82z"/><path d="m163.57 24.97-3.2-2.98-3.16 1.96 3.2 2.98-4.1 2.55h8.96l7.73 7.29 2.47-2.61-7.51-7.1v-4.8zM147.34 34.84l-3.2-2.98-3.16 1.95 3.2 2.98-4.11 2.55h8.97l7.73 7.3 2.47-2.62-7.52-7.09v-4.81z"/><path d="M189 11.59h-8.1l-4.23 4.08h-8.26l-6.1 3.17 1.43 3.46 5.44-2.85h2.38l8.34 9.64 9.1-5.54z"/><path fill="#d22630" d="m145.2 23.84 2.87 2.67-2.4 1.5-2.88-2.69zm7.2.5v4.22l7.34 6.92-1.88 2-7.54-7.12h-7.64l9.72-6.03zM160.32 22.53l2.88 2.68-2.41 1.49-2.88-2.68zm7.2.5v4.22l7.35 6.92-1.89 2-7.54-7.12h-7.63l9.72-6.03z"/><path fill="#d22630" d="m144.1 32.4 2.86 2.67-2.4 1.49-2.88-2.68zm7.2.49v4.23l7.33 6.92-1.88 1.99-7.54-7.12h-7.64l9.73-6.02zM188.78 12.02h-7.7l-4.24 4.08h-8.32l-5.66 2.94 1.1 2.66 5.11-2.68h2.68l8.24 9.52 8.8-5.36z"/></g><use xlink:href="#c" width="100%" height="100%" transform="matrix(1 0 0 -1 0 105.62)"/><path d="m143.05 39.71-3.85-1.44-.1.06-4.98 3.46v.93l-7.98 10.1 7.98 10.08v.93l5.08 3.52 3.85-1.44-2.35-1.56V61.4l.93-1.12h4.19V45.36h-4.19l-.93-1.12v-2.97z"/><path fill="#d22630" d="m134.55 42.01 4.7-3.26 2.87 1.07-1.85 1.22v3.35l1.16 1.4h3.96v14.05h-3.96l-1.16 1.39v3.35l1.85 1.22-2.86 1.07-4.71-3.26v-.86l-7.86-9.94 7.86-9.94z"/></g><use xlink:href="#d" width="100%" height="100%" fill="#383739" transform="matrix(-1 0 0 1 378 0)"/><path fill="#383739" d="m136.2 61.28-2.17-1.88v-.9l-4.66-5.69 4.66-5.68v-.91l2.17-1.88 3.9 3.17-2.25-.01 3.33 3.37h7.6l5.99-4.67V33.86h14.96L187.1 23.2v-2.8l-2.66-1.76h-.84l-2.9 1.93-.44 1.45-2.26-3.1 4.4-3.69h.7l4.96-3.64h1.87l4.97 3.64h.7l4.4 3.7-2.27 3.09-.44-1.45-2.9-1.93h-.84l-2.66 1.77v2.8l17.38 10.65h14.96V46.2l5.98 4.67h7.6l3.33-3.37-2.25.01 3.9-3.17 2.17 1.88v.9l4.66 5.7-4.66 5.68v.9l-2.17 1.88-3.9-3.17 2.25.02-3.33-3.38h-7.6l-5.98 4.68v12.33h-14.96l-17.38 10.66v2.8l2.66 1.77h.84l2.9-1.94.44-1.44L200 86.7l-4.4 3.7h-.7l-4.97 3.63h-1.87l-4.96-3.64h-.7l-4.4-3.7 2.26-3.08.45 1.44L183.6 87h.84l2.66-1.77v-2.8l-17.37-10.66h-14.96V59.43l-5.98-4.68h-7.6l-3.34 3.38 2.26-.02z"/><path fill="#ffc72c" d="m189.21 87.32 1.9 1.45-1.9 1.46v-2.91zm-6.04 2.64h.07l4.96 3.65h.58v-2.85l-2.6-1.99 2.6-1.99v-5.34l-18.59-11.4h-13.74V58.57l-7.1-5.55h-10.7l-2.69 3.05-2.69-3.05h-3.17l4.36 5.32v.87l1.72 1.5 2.78-2.16h-1.63v-.53l3.63-3.7h7.97l6.27 4.9v12.11h14.65l17.68 10.85v3.26l-2.96 1.97h-1.1l-3.13-2.09-.24-.77-1.52 2.08 3.97 3.33h.62zm-47.2-39.76 2.11 2.4h-4.23zm52.81-34.8-1.9 1.45 1.9 1.45zm51.13 37.63 2.12 2.39 2.12-2.4zm-45.15-37.37-4.97-3.64h-.58v2.84l2.6 1.99-2.6 2v5.33l18.59 11.4h13.74v11.47l7.1 5.55h10.7l2.69-3.04 2.69 3.04h3.17l-4.36-5.32v-.86l-1.72-1.5-2.78 2.16 1.63-.02v.54l-3.63 3.7h-7.97l-6.26-4.9V34.3h-14.65l-17.68-10.86v-3.26l2.95-1.97h1.1l3.13 2.1.24.77 1.53-2.08-3.98-3.34h-.69z"/><path fill="#fff" d="m188.78 90.23-1.9-1.46 1.9-1.45zm-50.7-37.2-2.11 2.39-2.12-2.4zm56.75 36.93h-.07l-4.97 3.65h-.58v-2.85l2.6-1.99-2.6-1.99v-5.34l18.59-11.4h13.74V58.57l7.1-5.55h10.7l2.69 3.05 2.69-3.05h3.17l-4.36 5.32v.87l-1.72 1.5-2.78-2.16h1.63v-.53l-3.63-3.7h-7.97l-6.26 4.9v12.11h-14.65l-17.68 10.85v3.26l2.95 1.97h1.1l3.13-2.09.24-.77 1.53 2.08-3.98 3.33h-.61zm47.2-39.76-2.12 2.4h4.24zm-58.8-34.54 4.97-3.64h.58v2.84l-2.6 1.99 2.6 2v5.33l-18.59 11.4h-13.74v11.47l-7.1 5.55h-10.7l-2.69-3.04-2.69 3.04h-3.17l4.36-5.32v-.86l1.73-1.5 2.77 2.16-1.63-.02v.54l3.63 3.7h7.97l6.27-4.9V34.3h14.65l17.68-10.86v-3.26l-2.96-1.97h-1.1l-3.13 2.1-.24.77-1.52-2.08 3.97-3.34h.69zm5.98 2.64 1.9-1.45-1.9-1.45z"/><path fill="#00843d" d="M188.78 53.03V24.68l-18.47 11.33h-13.43v11.25l-6.83 5.34h39.16v28.34l18.47-11.33h13.43V58.37l6.83-5.34z"/><path fill="#d22630" d="m150.05 53.03 6.83 5.34V69.6h13.43l18.47 11.33V52.6h39.16l-6.83-5.34V36h-13.43L189.2 24.68v28.35z"/><path fill="#383739" d="m169.12 39.06-3.2-2.97-3.16 1.95 3.2 2.98-4.11 2.55h8.97l7.73 7.29 2.47-2.61-7.52-7.1v-4.8zM208.87 66.56l3.2 2.98 3.16-1.95-3.2-2.99 4.11-2.54h-8.97l-7.72-7.3-2.48 2.62 7.52 7.08v4.82zM169.12 66.56l-3.2 2.98-3.16-1.95 3.2-2.99-4.11-2.54h8.97l7.73-7.3 2.47 2.62-7.52 7.08v4.82zM208.87 39.06l3.2-2.97 3.16 1.95-3.2 2.98 4.11 2.55h-8.97l-7.72 7.29-2.48-2.61 7.52-7.1v-4.8z"/><path fill="#d22630" d="m212.12 69-2.87-2.67 2.4-1.5 2.88 2.69zm-7.2-.5v-4.22l-7.34-6.92 1.88-2 7.55 7.12h7.63l-9.72 6.03zm-39.05-31.88 2.87 2.68-2.4 1.49-2.88-2.68zm7.2.5v4.22l7.34 6.92-1.88 2-7.54-7.12h-7.64l9.73-6.02z"/><path fill="#00843d" d="m212.12 36.62-2.87 2.68 2.4 1.49 2.88-2.68zm-7.2.5v4.22l-7.34 6.92 1.88 2 7.55-7.12h7.63l-9.72-6.02zM165.87 69l2.87-2.67-2.4-1.5-2.88 2.69zm7.2-.5v-4.22l7.34-6.92-1.88-2-7.54 7.12h-7.64l9.73 6.03z"/><path fill="#383739" d="M208.86 52.81 189 66.05 169.14 52.8 189 39.58Z"/><path fill="#fff" d="M188.78 40.23 170.23 52.6h37.53l-18.55-12.37V65.4l18.55-12.36h-37.53l18.55 12.36z"/><path fill="#383739" d="M194.3 57.36V61H183.7v-3.64h-6.88v-9.1h6.88v-3.64h10.62v3.64h6.87v9.1z"/><path fill="#d22630" d="M184.12 45.05v3.64h-6.88v3.9h11.54v-7.54h-4.66zm5.1 7.55h11.53v-3.91h-6.87v-3.64h-4.67v7.55zm-11.98.43v3.9h6.88v3.64h4.66v-7.54h-11.54Zm11.97 7.54h4.67v-3.63h6.87v-3.91h-11.54v7.54z"/><path fill="#383739" d="M222.88 203.61v-5.83h15.99v-5.83h15.98v-52.68h-15.98v-5.83h-16v-5.83H206.9v-5.83H171.1v5.83h-16v5.83h-15.98v5.83h-15.99v52.68h15.99v5.83h15.99v5.83h15.99v5.83h35.78v-5.83Z"/><path fill="#ffc72c" d="M171.56 122.2v5.82h-16v5.83h-16v5.82h-15.99v51.86h16v5.82h16v5.83h15.99V209h34.9v-5.82h16v-5.83h16v-5.82h15.99v-51.86h-16v-5.82h-16v-5.83h-15.99v-5.83zm4.24 4.23h26.42v5.83h16v5.82h16v5.83h16v43.38h-16v5.83h-16v5.82h-16v5.83H175.8v-5.83h-16v-5.82h-16v-5.83h-16V143.9h16v-5.83h16v-5.82h16z"/><path fill="#d22630" d="M160.2 198.52v-5.83h-15.98v-5.83h-15.99v-42.5h16v-5.83h15.98v-5.83h15.99v-5.83h25.6v5.83h15.99v5.83h15.98v5.83h16v42.5h-16v5.83H217.8v5.83h-16v5.83h-25.6v-5.83z"/><path fill="#383739" d="m163.92 137.01-4.14-3.13v6.01l-3.97 2.52v-3.76l-3.8 3.42-3.81-3.42-.01 3.76-4.4-2.79v5.58l-3.55 2.57v-3.42L136 147.4l-4.22-3.05v3.42l-3.99-2.89v16.89h-4.66v7.68h4.66v16.88l3.98-2.88.01 3.42 4.22-3.06 4.22 3.06.01-3.42 3.55 2.57v5.57l4.4-2.79v3.76l3.81-3.41 3.8 3.41.01-3.76 3.97 2.52v6.01l4.14-3.13.01 4.2 4.06-3.63 4.06 3.63v-4.2l3.72 2.8v6.42l5.55-5.06v5.95l7.68-4.94 7.68 4.94v-5.95l5.55 5.06v-6.41l3.7-2.8.02 4.2 4.06-3.64 4.06 3.63v-4.2l4.15 3.13v-6l3.96-2.53.01 3.77 3.8-3.42 3.8 3.42.02-3.77 4.4 2.8v-5.58l3.55-2.57v3.42l4.22-3.06 4.22 3.06.01-3.42 3.98 2.88v-16.88h4.67v-7.68h-4.67v-16.89l-3.98 2.89v-3.42l-4.23 3.05-4.21-3.05-.01 3.42-3.56-2.57v-5.58l-4.39 2.8-.01-3.77-3.8 3.42-3.8-3.42-.02 3.76-3.96-2.52v-6l-4.14 3.12-.01-4.2-4.06 3.64-4.06-3.63-.01 4.2-3.71-2.81v-6.41l-5.55 5.06v-5.95l-7.68 4.94-7.68-4.94v5.95l-5.55-5.06v6.4l-3.71 2.81-.01-4.2-4.06 3.64-4.06-3.63z"/><g fill="#00843d"><path d="m132.21 148.6.01-3.41 3.8 2.74.12-.09 3.67-2.65v3.41l3.98-2.88v39.77l-3.97-2.88-.01 3.42-3.8-2.75-3.79 2.75-.01-3.42-3.98 2.88v-16.47h-4.66v-6.82h4.66v-16.48zM164.36 133.77l3.63 3.25 3.63-3.25.01 4.1 4.14-3.12v61.72l-4.14-3.13v4.1l-3.64-3.24-3.63 3.25-.01-4.1-4.14 3.12v-61.72l4.14 3.12zM213.64 133.77l-3.63 3.25-3.63-3.25-.01 4.1-4.14-3.12v61.72l4.14-3.13v4.1l3.64-3.24 3.63 3.25v-4.1l4.15 3.12v-61.72l-4.14 3.12zM245.79 148.6l-.01-3.41-3.8 2.74-.12-.09-3.67-2.65-.01 3.41-3.98-2.88v39.77l3.98-2.88.01 3.42 3.8-2.75 3.79 2.75v-3.42l3.98 2.88v-16.47h4.67v-6.82h-4.67v-16.48z"/></g><g fill="#ffc72c"><path d="m148.62 139.61 3.38 3.04 3.38-3.04v3.58l4.4-2.79v50.41l-4.4-2.79v3.59l-3.38-3.04-3.38 3.04v-3.59l-4.4 2.8V140.4l4.4 2.8zM181.75 133.83l-5.55-5.06v73.68l5.55-5.06v6.13l7.25-4.66 7.25 4.66v-6.13l5.55 5.06v-73.68l-5.55 5.06v-6.13l-7.25 4.66-7.25-4.66zM229.37 139.61l-3.37 3.04-3.38-3.04-.01 3.58-4.4-2.79v50.41l4.4-2.79v3.59l3.39-3.04 3.37 3.04.01-3.59 4.4 2.8V140.4l-4.4 2.8z"/></g><g id="f" fill="#383739"><g id="e"><path d="M134.29 158.37c.48.49 1.06.73 1.72.73.66 0 1.24-.24 1.73-.73 1.52-1.53 1.57-4.3 1.55-6.3l-2.07 2.2-1.2-2.09s-1 1.7-1.21 2.09l-2.08-2.2c-.01 2 .04 4.77 1.56 6.3zM150.97 154.08l-1.28-1.28v-2.54l-2.94 2.72 5.25 5.25 5.25-5.25-2.94-2.72v2.54l-1.27 1.28v-4.51l2.26-1.95-3.3-2.83-3.3 2.83 2.27 1.95zM166.95 149.02l-1.28-1.28v-2.55l-2.93 2.73 5.25 5.25 5.25-5.25-2.94-2.72v2.54l-1.28 1.28v-4.51l2.27-1.95-3.3-2.83-3.3 2.83 2.26 1.95z"/><path fill="#fff" d="m136.01 153.04 1.13 1.94 1.7-1.8c-.05 2.24-.55 4.02-1.4 4.88a1.95 1.95 0 0 1-2.85 0c-.86-.86-1.35-2.64-1.4-4.89l1.7 1.8 1.12-1.93zM168.6 144.31v5.75l2.13-2.14v-1.74l1.9 1.75-4.64 4.63-4.63-4.63 1.89-1.75v1.74l2.13 2.14v-5.75l-2.03-1.75 2.64-2.26 2.64 2.26z"/><path fill="#d22630" d="M152.6 149.37v5.75l2.14-2.14v-1.74l1.9 1.75-4.64 4.63-4.63-4.63 1.89-1.75v1.74l2.13 2.14v-5.75l-2.03-1.75 2.64-2.26 2.64 2.26z"/></g><use xlink:href="#e" width="100%" height="100%" transform="matrix(-1 0 0 1 378 0)"/><path d="m195.28 150.94-1.72-2.38 4.41-4.07-4.11-3.38v2.4l-1.72 1.46v-4.34l3.89-2.86-7.03-5.18-7.03 5.18 3.88 2.86v4.34l-1.72-1.47v-2.4l-4.11 3.39 4.41 4.07-1.72 2.38z"/><path fill="#d22630" d="m183.55 150.5 1.45-2-4.33-4 3.04-2.48v1.68l2.57 2.2v-5.48l-3.59-2.65 6.3-4.65 6.31 4.65-3.59 2.65v5.49l2.58-2.21v-1.68l3.03 2.49-4.33 4 1.45 2z"/><path d="m185.78 137.77 3.22 2.37 3.2-2.37-3.2-2.37-.13.1z"/><path fill="#00843d" d="m189 135.93 2.49 1.84-2.5 1.83-2.48-1.83 2.49-1.84z"/></g><use xlink:href="#f" width="100%" height="100%" fill="#383739" transform="matrix(1 0 0 -1 0 331.22)"/><path fill="#383739" d="M245.9 163.15h-7.04v-2.8h-21.5l-14.98-9.84H175.62l-14.98 9.84h-21.51v2.8h-7.04v4.92h7.04v2.8h21.51l14.98 9.84h26.76l14.97-9.84h21.51v-2.8h7.04z"/><path fill="#d22630" d="m175.74 150.95-14.99 9.8h-21.18v2.8h-7.05v4.09h7.05v2.8h21.18l15 9.86h26.53l14.93-9.86h21.24v-2.8h7.05v-4.08h-7.05v-2.8h-21.24l-14.93-9.8Zm.32 1.43h25.85l13.72 9v1.38h15.3v5.72h-15.3v1.38l-13.72 8.95h-25.85l-13.67-8.95v-1.38h-15.36v-5.72h15.36v-1.37z"/><path fill="#d22630" d="m201.8 152.83 13.38 8.78v1.56h15.33v4.88h-15.33v1.56l-13.38 8.78h-25.6l-13.38-8.78v-1.56h-15.34v-4.88h15.34v-1.56l13.37-8.78z"/><g fill="#383739"><path d="m169.55 170.6 5.8 4.35 3.8-2.86-2.21-1.67-1.6 1.2-1.36-1.02 21.82-16.38h-4.43zm12.65 6.4h4.43l21.81-16.38-5.79-4.35-3.81 2.86 2.21 1.67 1.6-1.2 1.36 1.02zm9.17 0h4.43l-21.82-16.38 1.36-1.02 1.6 1.2 2.21-1.67-3.8-2.86-5.8 4.35zm12.64-6.4-1.36 1.02-1.6-1.2-2.21 1.67 3.81 2.86 5.8-4.35-21.82-16.38h-4.43zM165.16 165.6l3.9 2.6 3.9-2.6-3.9-2.58z"/><path d="m185.1 165.6 3.9 2.6 3.9-2.6-3.9-2.58zM212.83 165.6l-3.9 2.6-3.88-2.6 3.89-2.58z"/><path fill="#ffc72c" d="m207.73 170.6-5.08 3.81-3.1-2.32 1.5-1.13 1.6 1.2 2.08-1.56-21.25-15.95h3zm-13.22 5.97h-3l-21.24-15.95 5.07-3.81 3.1 2.32-1.5 1.13-1.6-1.2-2.07 1.56zm-8.03 0h-3l21.25-15.95-2.08-1.56-1.6 1.2-1.5-1.13 3.1-2.32 5.08 3.81zm5.03-21.92h3l-21.24 15.95 2.07 1.56 1.6-1.2 1.5 1.13-3.1 2.32-5.07-3.81z"/><path fill="#00843d" d="m169.06 163.54 3.12 2.07-3.12 2.07-3.12-2.07zM189 163.54l3.12 2.07-3.12 2.07-3.12-2.07zM208.94 163.54l-3.12 2.07 3.12 2.07 3.12-2.07z"/></g><g fill="#383739"><path d="m120.51 274.15-1.52 2.16 2.73 2.1-2.73 2.09 1.52 2.16 3.19.37 3.08-2.38 7.68 4.88v-4.05l-4.84-3.07 4.84-3.08v-4.05l-7.68 4.88-3.08-2.38z"/><path d="m120.51 260.07-1.52 2.16 2.73 2.1-2.73 2.1 1.52 2.15 3.19.37 3.08-2.38 7.68 4.88v-4.05l-4.84-3.07 4.84-3.07v-4.06l-7.68 4.88-3.08-2.38zM120.51 296.74l-1.52-2.16 2.73-2.1-2.73-2.09 1.52-2.16 3.19-.37 3.08 2.38 7.68-4.88v4.05l-4.84 3.07 4.84 3.08v4.05l-7.68-4.88-3.08 2.38zM257.48 274.15l1.53 2.16-2.74 2.1 2.74 2.09-1.53 2.16-3.18.37-3.08-2.38-7.68 4.88v-4.05l4.83-3.07-4.83-3.08v-4.05l7.68 4.88 3.08-2.38z"/><path d="m257.48 260.07 1.53 2.16-2.74 2.1 2.74 2.1-1.53 2.15-3.18.37-3.08-2.38-7.68 4.88v-4.05l4.83-3.07-4.83-3.07v-4.06l7.68 4.88 3.08-2.38zM257.48 296.74l1.53-2.16-2.74-2.1 2.74-2.09-1.53-2.16-3.18-.37-3.08 2.38-7.68-4.88v4.05l4.83 3.07-4.83 3.08v4.05l7.68-4.88 3.08 2.38zM226.73 235.73v5.86h4.26v2.58h4.18v-4.7h-3.73v-3.74ZM239.28 244.97v5.85h4.26v2.59h4.19v-4.71H244v-3.73zM151.27 235.73v5.86H147v2.58h-4.18v-4.7h3.73v-3.74ZM226.73 321.08v-5.85h4.26v-2.6h4.18v4.72h-3.73v3.73zM151.27 321.08v-5.85H147v-2.6h-4.18v4.72h3.73v3.73zM239.28 311.85v-5.86h4.26v-2.59h4.19v4.72H244v3.73zM138.71 244.97v5.85h-4.25v2.59h-4.19v-4.71H134v-3.73zM138.71 311.85v-5.86h-4.25v-2.59h-4.19v4.72H134v3.73zM204.75 235.6l-3.25-3.16-3.2 2.96 2.8 2.7-3.6 3.49h5.33l1.92-1.87 1.92 1.87h5.34l-3.6-3.5 2.79-2.7-3.2-2.95-3.25 3.15zM189 235.6l-3.25-3.16-3.2 2.96 2.79 2.7-3.6 3.49h5.34l1.92-1.87 1.92 1.87h5.33l-3.6-3.5 2.8-2.7-3.2-2.95-3.25 3.15zM173.24 235.6l3.25-3.16 3.2 2.96-2.79 2.7 3.6 3.49h-5.34l-1.92-1.87-1.92 1.87H166l3.6-3.5-2.79-2.7 3.2-2.95 3.24 3.15zM204.75 321.22l-3.25 3.15-3.2-2.95 2.8-2.7-3.6-3.5h5.33l1.92 1.87 1.92-1.86h5.34l-3.6 3.48 2.79 2.7-3.2 2.96-3.25-3.15zM189 321.22l-3.25 3.15-3.2-2.95 2.79-2.7-3.6-3.5h5.34l1.92 1.87 1.92-1.86h5.33l-3.6 3.48 2.8 2.7-3.2 2.96-3.25-3.15zM173.24 321.22l3.25 3.15 3.2-2.95-2.79-2.7 3.6-3.5h-5.34l-1.92 1.87-1.92-1.86H166l3.6 3.48-2.79 2.7 3.2 2.96 3.24-3.15z"/></g><g fill="#00843d"><path d="M134.03 281.71v3.04l-7.28-4.62-3.18 2.45-2.82-.32-1.18-1.67 2.86-2.18-2.86-2.19 1.18-1.67 2.82-.32 3.18 2.46 7.28-4.63v3.04l-5.2 3.3zM134.03 267.63v3.04l-7.28-4.62-3.18 2.46-2.82-.33-1.18-1.67 2.86-2.18-2.86-2.18 1.18-1.67 2.82-.33 3.18 2.46 7.28-4.62v3.03l-5.2 3.3zM134.03 289.18v-3.04l-7.28 4.62-3.18-2.45-2.82.32-1.18 1.67 2.86 2.18-2.86 2.19 1.18 1.67 2.82.32 3.18-2.45 7.28 4.62v-3.04l-5.2-3.3zM243.97 281.71v3.04l7.28-4.62 3.18 2.45 2.81-.32 1.18-1.67-2.85-2.18 2.85-2.19-1.18-1.67-2.82-.32-3.17 2.46-7.28-4.63v3.04l5.2 3.3zM243.97 267.63v3.04l7.28-4.62 3.18 2.46 2.81-.33 1.18-1.67-2.85-2.18 2.85-2.18-1.18-1.67-2.82-.33-3.17 2.46-7.28-4.62v3.03l5.2 3.3zM243.97 289.18v-3.04l7.28 4.62 3.18-2.45 2.81.32 1.18 1.67-2.85 2.18 2.85 2.19-1.18 1.67-2.82.32-3.17-2.45-7.28 4.62v-3.04l5.2-3.3zM231.01 236.16v3.73h3.73v3.86h-3.32v-2.6h-4.26v-5zM243.57 245.4v3.72h3.73v3.86h-3.33v-2.59h-4.26v-5zM146.99 236.16v3.73h-3.74v3.86h3.33v-2.6h4.26v-5zM231.01 320.65v-3.73h3.73v-3.85h-3.32v2.58h-4.26v5zM146.99 320.65v-3.73h-3.74v-3.85h3.33v2.58h4.26v5zM243.57 311.42v-3.73h3.73v-3.86h-3.33v2.59h-4.26v5zM134.43 245.4v3.72h-3.73v3.86h3.33v-2.59h4.25v-5zM134.43 311.42v-3.73h-3.73v-3.86h3.33v2.59h4.26v5zM201.5 233.03l3.25 3.16 3.26-3.16 2.56 2.37-2.77 2.7 3.15 3.06h-4.1l-2.1-2.03-2.1 2.03h-4.1l3.16-3.06-2.78-2.7 2.57-2.37zM185.74 233.03l3.26 3.16 3.26-3.16 2.56 2.37-2.78 2.7 3.15 3.06h-4.1l-2.1-2.03-2.09 2.03h-4.1l3.15-3.06-2.77-2.7 2.56-2.37zM176.5 233.03l-3.26 3.16-3.25-3.16-2.57 2.37 2.78 2.7-3.15 3.06h4.1l2.1-2.03 2.09 2.03h4.1l-3.15-3.06 2.78-2.7-2.57-2.37zM201.5 323.78l3.25-3.16 3.26 3.16 2.56-2.37-2.77-2.7 3.15-3.05h-4.1l-2.1 2.03-2.1-2.03h-4.1l3.16 3.05-2.78 2.7 2.57 2.37zM185.74 323.78l3.26-3.16 3.26 3.16 2.56-2.37-2.78-2.7 3.15-3.05h-4.1l-2.1 2.03-2.09-2.03h-4.1l3.15 3.05-2.77 2.7 2.56 2.37zM176.5 323.78l-3.26-3.16-3.25 3.16-2.57-2.37 2.78-2.7-3.15-3.05h4.1l2.1 2.03 2.09-2.03h4.1l-3.15 3.05 2.78 2.7-2.57 2.37z"/></g><path fill="#383739" d="M146.58 306.42v9.23h84.84v-9.23h12.55V250.4h-12.55v-9.23h-84.84v9.23h-12.55v56.03z"/><path fill="#ffc72c" d="M147.03 241.58v9.21h-12.55V306h12.55v9.21h83.95v-9.22h12.56V250.8h-12.56v-9.21h-83.95zm5.4 3.55h73.15v8.9l3.02 2.22H240v44.33h-11.44l-2.97 2.17v8.96h-73.14v-8.9l-3.02-2.23h-11.44v-44.33h11.38l3.08-2.22v-8.9z"/><path fill="#d22630" d="M152.86 245.55v8.16l11.02-8.16zm61.23 0 11.02 8.16v-8.16Zm-75.64 11.12v7.63l10.38-7.63h-10.38Zm90.68 0 10.44 7.68v-7.68zm10.44 35.76-10.44 7.73h10.44zm-101.12.05v7.68h10.38zm14.41 10.65v8.1h10.96zm72.24 0-10.96 8.1h10.96z"/><path fill="#00843d" d="m213.38 245.56 26.18 19.34v27.01l-26.18 19.34h-48.76l-26.19-19.34v-27c.17-.14 26.08-19.27 26.19-19.35z"/><path fill="#383739" d="m144.67 295.02-3.01-3.5 2.82-3.27-2.82-3.28 2.82-3.28-2.82-3.28 2.82-3.28-2.82-3.28 2.82-3.28-2.82-3.28 3-3.5h88.67l3 3.5-2.82 3.28 2.83 3.28-2.83 3.28 2.83 3.28-2.83 3.28 2.83 3.28-2.83 3.28 2.83 3.28-3.01 3.5zm60.94-45.24-3.5-3-3.27 2.82-3.28-2.83-3.28 2.83-3.28-2.83-3.28 2.83-3.28-2.83-3.28 2.83-3.28-2.83-3.5 3.01v57.25l3.5 3 3.28-2.82 3.28 2.83 3.28-2.83 3.28 2.83 3.28-2.83 3.28 2.83 3.28-2.83 3.28 2.83 3.5-3.01z"/><g fill="#ffc72c"><path d="m198.62 249.98-3.06-2.64-3.07 2.64v56.85l3.07 2.64 3.06-2.64zM185.5 249.98l-3.06-2.64-3.07 2.64v56.85l3.07 2.64 3.06-2.64z"/><path d="m144.86 294.6-2.64-3.07 2.64-3.07h88.27l2.64 3.07-2.64 3.06zM233.13 275.34l2.64 3.07-2.64 3.06h-88.27l-2.64-3.06 2.64-3.07zM233.13 268.35l2.64-3.06-2.64-3.07h-88.27l-2.64 3.07 2.64 3.06z"/></g><g fill="#d22630"><path d="m205.18 249.98-3.06-2.64-3.07 2.64v56.85l3.07 2.64 3.06-2.64zM178.94 249.98l-3.06-2.64-3.07 2.64v56.85l3.07 2.64 3.06-2.64z"/><path d="m144.86 288.03-2.64-3.06 2.64-3.07h88.27l2.64 3.07-2.64 3.06zM144.86 274.91l-2.64-3.06 2.64-3.07h88.27l2.64 3.07-2.64 3.06z"/><path d="m192.06 306.83-3.06 2.64-3.07-2.64v-56.85l3.07-2.64 3.06 2.64z"/></g><path fill="#383739" d="M218.63 251.09h-59.48v4.72h-7.6V301h7.6v4.72h59.7V301h7.6V255.8h-7.6v-4.72Z"/><path fill="#d22630" d="M159.59 251.53v4.72h-7.63v44.33h7.63v4.72h6.25l-12.45-10.44v-32.9l12.45-10.42h-6.25Zm52.6 0 12.39 10.44v32.9l-12.4 10.43h6.25v-4.72h7.58v-44.33h-7.58v-4.72h-6.25z"/><g fill="#00843d"><path d="m166.53 251.53-12.72 10.65v32.47l12.72 10.65h44.96l12.66-10.65v-32.47l-12.66-10.65zm.63 1.8h43.64l11.55 9.7v30.77l-11.55 9.64h-43.64l-11.5-9.64v-30.77z"/><path d="m178.72 294.29 1.95.84.36 2.28-2.46 2.17 3.58 3.45h-3.44l-2.46-2.36-2.46 2.36h-3.43l3.57-3.45-2.46-2.17.36-2.28 1.95-.84 2.47 1.97.13-.1zM191.47 294.29l1.95.84.36 2.28-2.46 2.17 3.57 3.45h-3.43l-2.46-2.36-2.46 2.36h-3.44l3.58-3.45-2.46-2.17.36-2.28 1.95-.84 2.47 1.97.13-.1zM199.28 294.29l-1.96.84-.36 2.28 2.46 2.17-3.57 3.45h3.44l2.46-2.36 2.45 2.36h3.44l-3.57-3.45 2.46-2.17-.36-2.28-1.95-.84-2.47 1.97-.14-.1zM178.72 262.52l1.95-.84.36-2.28-2.46-2.17 3.58-3.45h-3.44l-2.46 2.37-2.46-2.37h-3.43l3.57 3.45-2.46 2.17.36 2.28 1.95.84 2.47-1.97.13.1zM191.47 262.52l1.95-.84.36-2.28-2.46-2.17 3.57-3.45h-3.43l-2.46 2.37-2.46-2.37h-3.44l3.58 3.45-2.46 2.17.36 2.28 1.95.84 2.47-1.97.13.1zM199.28 262.52l-1.96-.84-.36-2.28 2.46-2.17-3.57-3.45h3.44l2.46 2.37 2.45-2.37h3.44l-3.57 3.45 2.46 2.17-.36 2.28-1.95.84-2.47-1.97-.14.1zM221.9 266.17l-1.95 1.61 1.95 1.62v2.67l-3-2.47-2.15 1.95-2.3-.29c-.1-.16-.7-1.28-.82-1.5l1.99-1.98-2-1.98.82-1.5 2.31-.29 2.15 1.95 3-2.47zM221.9 276.8l-1.95 1.6 1.95 1.62v2.68l-3-2.47-2.15 1.95-2.3-.3c-.1-.15-.7-1.27-.82-1.5l1.99-1.97-2-1.98.82-1.5 2.31-.3 2.15 1.96 3-2.47zM221.9 290.65l-1.95-1.62 1.95-1.61v-2.68l-3 2.47-2.15-1.95-2.3.3c-.1.15-.7 1.27-.82 1.5l1.99 1.97-2 1.98.82 1.5 2.31.3 2.15-1.96 3 2.47zM156.1 266.17l1.95 1.61-1.95 1.62v2.67l3-2.47 2.15 1.95 2.3-.29c.1-.16.7-1.28.82-1.5l-1.99-1.98 1.99-1.98-.81-1.5-2.31-.29-2.15 1.95-3-2.47zM156.1 276.8l1.95 1.6-1.95 1.62v2.68l3-2.47 2.15 1.95 2.3-.3c.1-.15.7-1.27.82-1.5l-1.99-1.97 1.99-1.98-.81-1.5-2.31-.3-2.15 1.96-3-2.47zM156.1 290.65l1.95-1.62-1.95-1.61v-2.68l3 2.47 2.15-1.95 2.3.3c.1.15.7 1.27.82 1.5l-1.99 1.97 1.99 1.98-.81 1.5-2.31.3-2.15-1.96-3 2.47z"/></g><path fill="#d22630" d="m167.32 253.76-11.07 9.27c.95.78 1.86 1.6 2.8 2.38.25-.21 2.07-1.85 2.07-1.85l2.7.37 1.06 1.96-1.9 1.9 1.9 1.91-1.06 1.96-2.7.32-2.06-1.8-2.97 2.49v.85c1 .82 1.97 1.66 2.97 2.49l2.06-1.8 2.7.31 1.06 1.96-1.9 1.91 1.9 1.9-1.06 2.02-2.7.32-2.06-1.86-2.97 2.5v.9l2.97 2.48 2.06-1.85 2.7.37 1.06 1.96-1.9 1.9 1.9 1.91-1.06 1.96-2.7.37-2.06-1.85-2.81 2.33 11.07 9.27h2.44l3.55-3.44-2.28-2.02.42-2.75 2.38-1 2.44 1.9 2.38-1.9 2.39 1 .47 2.75-2.33 2.02 3.45 3.28 3.44-3.28-2.33-2.02.42-2.75 2.44-1 2.38 1.9 2.44-1.9 2.38 1 .43 2.75-2.28 2.02 3.39 3.33 3.44-3.33-2.28-2.02.43-2.75 2.43-1 2.39 1.9 2.38-1.9 2.44 1 .42 2.75-2.28 2.02 3.55 3.44h2.39l11.07-9.27-2.81-2.33-2.01 1.85-2.7-.37-1.12-1.96 1.9-1.9-1.9-1.91 1.11-1.96 2.7-.37 2.02 1.85 2.96-2.49v-.9l-2.96-2.49-2.01 1.86-2.7-.32-1.12-2.01 1.9-1.91-1.9-1.9 1.11-1.97 2.7-.31 2.02 1.8 2.96-2.44v-.95l-2.96-2.44-2.01 1.8-2.7-.32-1.12-1.96 1.9-1.9-1.9-1.91 1.11-1.96 2.7-.37 2.02 1.85 2.86-2.33-11.12-9.32h-2.39l-3.55 3.44 2.28 2.02-.42 2.75-2.44 1.06-2.38-1.9-2.39 1.9-2.43-1.06-.43-2.75 2.28-2.02-3.39-3.28-3.44 3.28 2.28 2.02-.43 2.75-2.38 1.06-2.44-1.9-2.38 1.9-2.44-1.06-.42-2.75 2.33-2.02-3.44-3.28-3.45 3.28 2.33 2.02-.47 2.75-2.39 1.06-2.38-1.9-2.44 1.9-2.38-1.06-.42-2.75 2.28-2.02-3.6-3.44zm-11.23 23.57v2.17l1.27-1.11z"/><g fill="#fff"><path d="m176.27 301.27-1.85 1.75h3.65zM188.98 301.27l-1.8 1.75h3.66zM201.75 301.27l-1.86 1.75h3.71zM174.36 253.76l1.91 1.8 1.86-1.8zM187.13 253.76l1.85 1.8 1.91-1.8zM199.9 253.76l1.85 1.8 1.85-1.8zM221.88 266.74l-1.28 1.06 1.28 1zM221.88 277.33l-1.28 1.06 1.28 1.06zM221.88 287.98l-1.28 1.06 1.28 1.05zM156.1 266.69v2.17l1.26-1.06zM156.1 277.33v2.17l1.26-1.11zM156.1 287.92v2.18l1.26-1.06z"/></g><g fill="#383739"><path d="M199.9 274.86v-3.8h-3.84v-4.15h-14.13v4.16h-3.83v3.79h-5.3v7.1h5.3v3.79h3.83v4.15h14.13v-4.15h3.84v-3.8h5.3v-7.1z"/><path fill="#ffc72c" d="M188.78 267.34v4.28l-6.07 3.46v3.11h-9.49v-2.9h5.3v-3.8h3.84v-4.15zM189.21 289.48v-4.29l6.08-3.45v-3.12h9.48v2.9h-5.3v3.8h-3.83v4.16z"/><path fill="#fff" d="M195.29 278.2v-3.12l-6.08-3.46v-4.28h6.43v4.15h3.83v3.8h5.3v2.9zM173.22 278.62h9.49v3.12l6.07 3.45v4.28h-6.42v-4.15h-3.84v-3.8h-5.3z"/><path fill="#d22630" d="M183.14 278.62v2.89l5.64 3.2v-6.09z"/><path fill="#00843d" d="m188.78 272.1-5.64 3.2v2.9h5.64z"/><path fill="#d22630" d="M194.86 278.2v-2.9l-5.65-3.2v6.1z"/><path fill="#00843d" d="m189.21 284.72 5.65-3.21v-2.89h-5.65z"/></g><path fill="#d22630" d="M137.65 353.73v11.72h-11.17v10.62h-11.31v30.26h11.31v10.63h11.17v11.72h40.6l7.13 4.29-3.43 2.06h-14.47l-1.25-1.41h13.12l-3.7-3.72H156.9l8.5 8.85h17.6l6-3.61 6.02 3.6h17.6l8.5-8.84h-18.77l-3.7 3.72h13.13l-1.25 1.4h-14.48l-3.43-2.05 7.14-4.3h40.6v-11.71h11.16v-10.63h11.32v-30.26h-11.32v-10.62h-11.16v-11.72h-40.6l-7.14-4.29 3.43-2.06h14.48l1.25 1.4h-13.12l3.7 3.73h18.76l-8.5-8.85H195l-6.01 3.6-6.01-3.6h-17.6l-8.5 8.85h18.76l3.7-3.72h-13.12l1.25-1.41h14.47l3.43 2.06-7.14 4.29z"/><path fill="#ffc72c" d="M199.63 428.23h40.3v-11.7h11.13v-10.65h11.33v-29.4h-11.33v-10.6h-11.12v-11.7h-40.31l-16.74-10.11h-17.32l-7.68 8h17.59l2.86-2.87h-13.09l2.02-2.27h14.83l18.96 11.44h34.64v11.7h11.17v10.65h11.34v20.97h-11.34v10.65H235.7v11.7h-34.64l-18.96 11.4h-14.83l-2.02-2.23h13.09l-2.86-2.86h-17.59l7.68 8h17.32zm-22.72-4.18h-34.64v-11.71h-11.13v-10.65h-11.33v-20.97h11.33v-10.65h11.13v-11.7h34.64l19.01-11.44h14.78l2.01 2.27h-13.03l2.86 2.86h17.59l-7.68-8h-17.32l-16.74 10.12h-40.3v11.7H126.9v10.6h-11.34v29.4h11.34v10.64h11.17v11.71h40.31l16.74 10.12h17.32l7.68-8h-17.59l-2.86 2.86h13.03l-2.01 2.22h-14.78z"/><path fill="none" d="m188.98 351.59-11.97 7.2H142.7v11.7h-11.12v10.66h-11.34v20.12h11.34v10.65h11.12v11.7h34.32l11.97 7.15 11.97-7.15h34.33v-11.7h11.17v-10.65h11.34v-20.12h-11.34V370.5h-11.17v-11.7h-34.33zm0 2.97 11.28 6.78h32.53v11.7h11.17v10.6h11.28v15.09h-11.28v10.65H232.8v11.7h-32.53l-11.28 6.78-11.23-6.78h-32.52v-11.7h-11.17v-10.65h-11.34v-15.1h11.34v-10.59h11.17v-11.7h32.52z"/><path fill="#00843d" d="M232.34 408.95v11.72h-32.2l-11.14 6.7-11.15-6.7h-32.2v-11.72H134.5v-10.62h-11.32v-14.25h11.32v-10.63h11.16v-11.71h32.2l11.15-6.7 11.14 6.7h32.2v11.71h11.17v10.63h11.31v14.25h-11.31v10.62z"/><g fill="#383739"><path d="M149.87 404.85v11.34h17.7l-17.7-11.74zM149.87 377.56v-11.34h17.7l-17.7 11.74zM228.13 404.85v11.34h-17.7l17.7-11.74zM228.13 377.56v-11.34h-17.7l17.7 11.74z"/><path fill="#d22630" d="m150.3 405.25 15.85 10.51H150.3ZM150.3 377.16l15.85-10.51H150.3ZM227.7 405.25l-15.85 10.51h15.85zM227.7 377.16l-15.85-10.51h15.85z"/></g><g id="g" fill="#383739"><path d="M172.44 388.1v-5.8h-1.97l-9.48-5.92-.11.07-9.36 5.85h-1.98v5.8h-4.45v6.21h4.45v5.8h1.98l9.47 5.92 9.48-5.93h1.97v-5.79h6.79v-6.22z"/><path fill="#d22630" d="m161 376.88 8.66 5.42h-17.33Zm8.66 23.22-8.67 5.42-8.66-5.42zM167.56 388.52v5.37h-10.8v-5.37z"/><g fill="#ffc72c"><path d="M172.02 394.31v5.37H161.2v-5.37zM160.78 394.31v5.37h-10.8v-5.37zM178.8 388.52v5.37h-10.81v-5.37zM156.32 388.52v5.37h-10.8v-5.37zM172.02 382.73v5.36H161.2v-5.36zM160.78 382.73v5.36h-10.8v-5.36z"/></g><path d="M153.35 389.71v2.98h-4.86v-2.98zM157.8 383.92v2.98h-4.85v-2.98zM169.04 383.92v2.98h-4.86v-2.98zM164.59 389.71v2.98h-4.86v-2.98zM175.82 389.71v2.98h-4.85v-2.98zM169.04 395.5v2.98h-4.86v-2.98zM157.8 395.5v2.98h-4.85v-2.98z"/><g fill="#fff"><path d="M152.9 390.17h-3.95v2.07h3.94zM157.35 384.38h-3.94v2.07h3.94zM168.58 384.38h-3.94v2.07h3.94zM164.13 390.17h-3.94v2.07h3.94zM175.37 390.17h-3.95v2.07h3.95zM168.58 395.96h-3.94v2.07h3.94zM157.35 395.96h-3.94v2.07h3.94z"/></g></g><use xlink:href="#g" width="100%" height="100%" fill="#383739" transform="matrix(-1 0 0 1 378 0)"/><g id="h" fill="#383739"><path d="M200.45 378.42v5.8h-1.98l-9.47 5.92-.12-.08-9.36-5.85h-1.97v-5.79h-5.62v-6.22h5.62v-5.79h1.97l9.48-5.93 9.47 5.93h1.98v5.79h5.62v6.22z"/><path fill="#ffc72c" d="m189 389.63 8.67-5.42h-17.34Zm8.66-23.22-8.66-5.42-8.67 5.42z"/><g fill="#d22630"><path d="M200.02 372.2v-5.36h-10.8v5.36ZM188.78 372.2v-5.36h-10.8v5.36ZM205.64 378v-5.37h-10.81v5.36zM194.4 378v-5.37h-10.8v5.36zM183.16 378v-5.37h-10.8v5.36zM200.02 383.78v-5.36h-10.8v5.36zM188.78 383.78v-5.36h-10.8v5.36z"/></g><path d="M185.8 368.03V371h-4.85v-2.98ZM197.04 368.03V371h-4.85v-2.98ZM180.19 373.82v2.98h-4.86v-2.98ZM191.43 373.82v2.98h-4.86v-2.98ZM202.66 373.82v2.98h-4.85v-2.98ZM185.8 379.61v2.98h-4.85v-2.98zM197.04 379.61v2.98h-4.85v-2.98z"/><g fill="#fff"><path d="M185.35 368.49h-3.94v2.06h3.94zM196.59 368.49h-3.94v2.06h3.94zM179.73 374.28h-3.94v2.06h3.94zM190.97 374.28h-3.94v2.06h3.94zM202.2 374.28h-3.94v2.06h3.95zM185.35 380.07h-3.94v2.06h3.94zM196.59 380.07h-3.94v2.06h3.94z"/></g></g><use xlink:href="#h" width="100%" height="100%" y="31.79" fill="#383739"/><path fill="#383739" d="m127.68 479.35 42.05-22.63h38.54l42.05 22.63v37.3l-42.05 22.62h-38.54l-42.05-22.63Z"/><path fill="#00843d" d="m169.86 457.15-41.73 22.46v36.76l41.73 22.45h38.3l41.74-22.45V479.6l-41.74-22.46zm.74 3.02h36.82l39.5 21.24v33.2l-39.5 21.25h-36.84l-39.51-21.24V481.4z"/><path fill="#ffc72c" d="M189.21 497.78v37.64h18.1l39.18-21.08V498.2h-57.7v-37.64h-18.1l-39.18 21.09v16.12z"/><path fill="#fff" d="M188.78 497.78v37.64h-18.1l-39.18-21.08V498.2h57.71v-37.64h18.1l39.18 21.09v16.12z"/><path fill="#383739" d="M192.51 533.32v-10.88l-3.51 2.23-3.52-2.23v10.88h-10.94l7.38-5.42v-7.72l-11.26-7.14h-7.87v-30.08h7.87l11.26-7.14v-7.72l-7.38-5.42h10.94v10.88l3.52-2.23 3.51 2.23v-10.88h10.95l-7.39 5.42v7.72l11.26 7.14h7.87v30.08h-7.87l-11.26 7.14v7.72l7.39 5.42z"/><path fill="#ffc72c" d="M192.96 463.13v11.23l-3.77-2.38v3.18l17.22 10.96h5.67v11.66h2.7v-14.41h-7.58l-11.54-7.31v-8.16l6.51-4.76h-9.21zm-29.72 35.07v14.4h7.52l11.6 7.37v8.15l-6.51 4.77h9.21v-11.23l3.71 2.39v-3.29l-17.21-10.86h-5.62v-11.7h-2.7z"/><path fill="#fff" d="m175.85 463.13 6.51 4.77v8.16l-11.6 7.3h-7.52v14.42h2.7v-11.66h5.62l17.21-10.9v-3.24l-3.7 2.38v-11.22h-9.22zm36.23 35.07v11.7h-5.67l-17.22 10.86v3.29l3.77-2.39v11.23h9.21l-6.51-4.77v-8.15l11.54-7.36h7.58V498.2h-2.7z"/><path fill="#d22630" d="M166.35 509.46h5.34l17.3 10.98 17.31-10.98h5.34v-22.92h-5.34L189 475.56l-17.31 10.98h-5.34z"/><path fill="#383739" d="M200.98 503.44h3.7v-1.74h-2.79v-3.18h5.94v8.1h-5.7v5.53h-11.72v-7.94h5.16v3.18h-2v1.59h5.4v-3.04l-21.95-13.39h-3.7v1.75h2.78v3.18h-5.94v-8.1h5.7v-5.53H187.57v7.94h-5.16v-3.18h2v-1.59h-5.4v3.04zm-2-13.38v-3.04h-5.4v1.6h2v3.17h-5.17v-7.94h11.73v5.53h5.7v8.1h-5.95v-3.18h2.78v-1.75h-3.7l-21.95 13.39v3.03h5.4v-1.58h-2v-3.18h5.16v7.94h-11.73v-5.53h-5.7v-8.1h5.95v3.18h-2.78v1.75h3.7z"/><path fill="#fff" d="M199.4 505.7v3.7h-6.25v-2.44h2v-2.32h-4.3v7.08h10.86v-5.53h5.7v-7.24h-5.09v2.32h2.78v2.6h-4.24l-22.27-13.57v-3.7h6.26v2.44h-2v2.32h4.3v-7.09h-10.87v5.53h-5.7v7.25h5.1v-2.32h-2.79v-2.6h4.25zm1.46-13.57h4.24v2.6h-2.78v2.32h5.09v-7.25h-5.7v-5.53h-10.87v7.1h4.3v-2.33h-2v-2.44h6.27v3.7l-22.27 13.57h-4.25v-2.6h2.78v-2.32h-5.08v7.25h5.7v5.52h10.86v-7.08h-4.3v2.32h2v2.44h-6.26v-3.7z"/><g fill="#383739"><path d="M238.04 499.88v11.77h-5v-4.16h-5.05v4.16h-5v-11.77h5v4.16h5.05v-4.16zM220.13 515.5v11.76h-5v-4.15h-5.05v4.15h-5V515.5h5v4.15h5.05v-4.15zM238.04 496.11v-11.76h-5v4.15h-5.05v-4.15h-5v11.76h5v-4.15h5.05v4.15zM139.95 499.88v11.77h5v-4.16H150v4.16h5v-11.77h-5v4.16h-5.04v-4.16zM139.95 496.11v-11.76h5v4.15H150v-4.15h5v11.76h-5v-4.15h-5.04v4.15zM220.13 480.5v-11.76h-5v4.15h-5.05v-4.15h-5v11.76h5v-4.15h5.05v4.15zM157.86 515.5v11.76h5v-4.15h5.05v4.15h5.01V515.5h-5v4.15h-5.05v-4.15zM157.86 480.5v-11.76h5v4.15h5.05v-4.15h5.01v11.76h-5v-4.15h-5.05v4.15zM223.12 472.26v8.93h16.6zM154.88 523.74v-8.93h-16.6zM154.88 472.26v8.93h-16.6zM223.12 523.74v-8.93h16.6z"/></g><g fill="#d22630"><path d="M233.47 507.06v4.16h4.14v-10.9h-4.15v4.15h-5.9v-4.16h-4.15v10.9h4.15v-4.15zM215.56 522.68v4.15h4.14v-10.9h-4.14v4.15h-5.9v-4.15h-4.16v10.9h4.15v-4.15zM233.47 488.93v-4.15h4.14v10.9h-4.15v-4.15h-5.9v4.15h-4.15v-10.9h4.15v4.15zM144.53 507.06v4.16h-4.15v-10.9h4.15v4.15h5.9v-4.16h4.15v10.9h-4.15v-4.15zM144.53 488.93v-4.15h-4.15v10.9h4.15v-4.15h5.9v4.15h4.15v-10.9h-4.15v4.15zM215.56 473.32v-4.15h4.14v10.9h-4.14v-4.15h-5.9v4.15h-4.16v-10.9h4.15v4.15zM162.44 522.68v4.15h-4.15v-10.9h4.15v4.15h5.9v-4.15h4.15v10.9h-4.15v-4.15zM162.44 473.32v-4.15h-4.15v10.9h4.15v-4.15h5.9v4.15h4.15v-10.9h-4.15v4.15z"/></g><path fill="#ffc72c" d="M223.57 472.99v7.78h14.46zm-83.58 42.26 14.46 7.79v-7.79h-14.46z"/><path fill="#fff" d="m154.45 472.99-14.46 7.78h14.46zm69.12 42.26v7.79l14.46-7.79z"/><path fill="#ffc72c" d="M256.9 530.82c-.8 3.41-3.51 5.98-4.16 9.52-1.29-3.69-2.48-6.78-1.6-10.8.64-2.89 3.07-4.95 3.35-7.9 2.65 2.37 3.21 5.74 2.4 9.18zm.67 14.28a22.3 22.3 0 0 1-8.8 7c.67-2.69-.6-4.71-2.01-6.85-1.7-2.58-2.53-5.1-1.15-8.07a18.15 18.15 0 0 0 2.54 4.14c1.5 2.05 2.5 3.88 2.73 6.52 1.74-1.3 2.5-3.22 3.44-5.09a16.03 16.03 0 0 1 6.34-6.37c-.7 3-1.24 6.17-3.1 8.72zm-12.58 9.17c.48 1.7.9 3.4.8 5.18 1.48-1.6 3.45-2.8 5.2-4.08 2.4-1.94 5.18-3.3 7.14-5.76a11.65 11.65 0 0 1-4.79 8.78c-3.11 2.33-6.87 3.58-9.93 6.03.46-3.3-.76-5.94-1.79-8.97a8.39 8.39 0 0 1 1.94-8.04c-.03 2.45.74 4.55 1.43 6.86zM238 565.4c-.64 2.5-2.43 4.53-3.66 6.76 3.3-1.02 6.21-2.8 9.2-4.5 3.55-1.93 7.4-3.16 10.62-5.71-1.6 5.92-5.57 9.36-11.37 11.1-3.97 1.2-7.31.61-12.12 2.55a33.47 33.47 0 0 1 3.06-9.7c1.2-2.13 2.52-4.23 3.26-6.57 1.07 1.92 1.58 3.88 1.01 6.07zm-12.14 9.06a15.21 15.21 0 0 1-4.5 4.88c4.7.3 8.46-2.67 13.03-2.8 2.82-.08 5.5.8 8.37.53-3.41 2.3-6.99 4.32-11.14 4.86-5.4.7-10.38-.67-16.34-.13 2.78-1.97 4.18-4.6 5.91-7.43 2.26-3.53 4.4-6.05 8.79-6.62-1.76 1.99-2.8 4.45-4.12 6.71zm-16.63 7.78c8.25 1.4 16.16 3.21 24.58 3.3-9.43 3.29-18.31 3.88-27.67.49-5.05-1.84-8.93-2.82-12.75-2.55-5.58.4-12.36 2.6-19.86 10.52l-2.95-2.36c10.75-9.58 24.83-11.75 38.65-9.4z"/></svg>